<svg width="128" height="128" viewBox="0 0 128 128" fill="none" xmlns="http://www.w3.org/2000/svg">
<path fill-rule="evenodd" clip-rule="evenodd" d="M86.7125 103.85C88.8125 103.45 90.9125 102.85 92.9125 102.05L101.013 110.05V111.15C101.013 117.45 95.9125 122.65 89.5125 122.65H19.0125C12.7125 122.65 7.51251 117.55 7.51251 111.15V25.7501C7.51251 19.4501 12.6125 14.2501 19.0125 14.2501H27.1125C29.4125 9.0501 34.8125 5.3501 40.9125 5.3501H67.5125C73.6125 5.3501 78.9125 8.9501 81.3125 14.2501H89.4125C95.7125 14.2501 100.913 19.3501 100.913 25.7501V52.9501C97.0125 49.5501 92.1125 47.0501 86.7125 46.1501V32.0501C86.7125 30.0501 85.1125 28.2501 82.9125 28.2501H80.3125C77.7125 32.7501 72.9125 35.7501 67.3125 35.7501H40.9125C35.5125 35.7501 30.6125 32.7501 27.9125 28.2501H25.3125C23.3125 28.2501 21.5125 29.8501 21.5125 32.0501V104.65C21.5125 106.65 23.1125 108.45 25.3125 108.45H83.0125C85.0125 108.45 86.8125 106.85 86.8125 104.65H86.7125V103.85ZM67.6125 16.6501H40.8125C38.6125 16.6501 36.8125 18.3501 37.0125 20.4501C37.0125 22.4501 38.6125 24.2501 40.8125 24.2501H67.6125C69.6125 24.2501 71.4125 22.6501 71.4125 20.4501C71.4125 18.4501 69.8125 16.6501 67.6125 16.6501ZM103.212 90.3504L118.612 105.75C121.112 108.25 121.112 112.25 118.612 114.65C116.112 117.05 112.012 117.05 109.612 114.65L94.2124 99.2504C94.028 99.1274 93.9191 98.9667 93.8162 98.8146C93.7517 98.7193 93.6895 98.6274 93.6124 98.5504C90.0124 100.45 86.0124 101.45 81.7124 101.45C67.1124 101.45 55.3124 89.6504 55.3124 75.0504C55.3124 60.4504 67.1124 48.6504 81.7124 48.6504C96.3124 48.6504 108.112 60.4504 108.112 75.0504C108.112 80.7504 106.312 86.0504 103.212 90.3504ZM81.7124 56.0504C71.2124 56.0504 62.7124 64.5504 62.7124 75.0504C62.7124 85.4504 71.2124 94.0504 81.7124 94.0504C92.2124 94.0504 100.712 85.5504 100.712 75.0504C100.712 64.5504 92.2124 56.0504 81.7124 56.0504ZM54.0125 84.4502H32.1125V95.2502H60.6125C57.6125 92.2502 55.4125 88.5502 54.0125 84.4502ZM54.1125 65.1504C53.0125 68.2504 52.4125 71.5504 52.4125 75.0504C52.4125 75.1896 52.434 75.3288 52.4571 75.4781C52.4838 75.6504 52.5125 75.836 52.5125 76.0504H32.1125V65.1504H54.1125ZM76.4125 46.2502V45.9502H32.1125V56.7502H58.8125C63.2125 51.3502 69.4125 47.5502 76.4125 46.2502ZM68.4125 83.0502C67.0125 80.6502 66.2125 77.9502 66.2125 75.0502C66.2125 70.8502 67.8125 67.1502 70.4125 64.4502H93.2125C95.8125 67.1502 97.4125 70.9502 97.4125 75.0502C97.4125 77.9502 96.6125 80.7502 95.2125 83.0502H68.4125Z" fill="currentColor"/>
</svg>
