<svg width="128" height="128" viewBox="0 0 128 128" fill="none" xmlns="http://www.w3.org/2000/svg">
<path d="M121.224 49.0959H79.1462V7.0137C79.1462 3.00587 75.8902 0 72.1333 0H56.3541C52.3467 0 49.3411 3.25636 49.3411 7.0137V49.0959H7.01295C3.00555 49.0959 0 52.3522 0 56.1096V71.8904C0 75.8982 3.25601 78.9041 7.01295 78.9041H49.0907V120.986C49.0907 124.994 52.3467 128 56.1036 128H71.8828C75.8902 128 78.8958 124.744 78.8958 120.986V79.1546H120.973C124.981 79.1546 127.986 75.8982 127.986 72.1409V56.3601C128.237 52.3523 124.981 49.0959 121.224 49.0959Z" fill="currentColor"/>
</svg>
