<svg width="128" height="128" viewBox="0 0 128 128" fill="none" xmlns="http://www.w3.org/2000/svg">
<path d="M64 125.8C98.1311 125.8 125.8 98.1314 125.8 64.0002C125.8 29.869 98.1311 2.2002 64 2.2002C29.8688 2.2002 2.19995 29.869 2.19995 64.0002C2.19995 98.1314 29.8688 125.8 64 125.8Z" fill="#0064C8"/>
<path d="M86.8 57.9999H70V41.1999C70 39.5999 68.7 38.3999 67.2 38.3999H60.9C59.3 38.3999 58.1 39.6999 58.1 41.1999V57.9999H41.2C39.6 57.9999 38.4 59.2999 38.4 60.7999V67.0999C38.4 68.6999 39.7 69.8999 41.2 69.8999H58V86.6999C58 88.2999 59.3 89.4999 60.8 89.4999H67.1C68.7 89.4999 69.9 88.1999 69.9 86.6999V69.9999H86.7C88.3 69.9999 89.5 68.6999 89.5 67.1999V60.8999C89.6 59.2999 88.3 57.9999 86.8 57.9999Z" fill="white"/>
</svg>
