<svg width="128" height="128" viewBox="0 0 128 128" fill="none" xmlns="http://www.w3.org/2000/svg">
<path d="M100.144 80.8876L95.6436 85.3876C94.5436 86.4876 92.7436 86.4876 91.6436 85.3876L66.0436 59.7876C64.9436 58.6876 63.1436 58.6876 62.0436 59.7876L36.3436 85.3876C35.2436 86.4876 33.4436 86.4876 32.3436 85.3876L27.8436 80.8876C26.7436 79.7876 26.7436 77.9876 27.8436 76.8876L57.5436 47.1876L62.0436 42.6876C62.4436 42.2876 62.9436 42.0876 63.4436 41.8876C63.6436 41.8876 63.8436 41.7876 64.0436 41.7876C64.2436 41.7876 64.4436 41.7876 64.6436 41.8876C65.1436 41.9876 65.6436 42.2876 66.0436 42.6876L70.5436 47.1876L100.244 76.8876C101.244 77.9876 101.244 79.7876 100.144 80.8876Z" fill="currentColor"/>
</svg>
