<svg width="128" height="128" viewBox="0 0 128 128" fill="none" xmlns="http://www.w3.org/2000/svg">
<path d="M100.144 47.1126L95.6436 42.6126C94.5436 41.5126 92.7436 41.5126 91.6436 42.6126L66.0436 68.2126C64.9436 69.3126 63.1436 69.3126 62.0436 68.2126L36.3436 42.6126C35.2436 41.5126 33.4436 41.5126 32.3436 42.6126L27.8436 47.1126C26.7436 48.2126 26.7436 50.0126 27.8436 51.1126L57.5436 80.8126L62.0436 85.3126C62.4436 85.7126 62.9436 85.9126 63.4436 86.1126C63.6436 86.1126 63.8436 86.2126 64.0436 86.2126C64.2436 86.2126 64.4436 86.2126 64.6436 86.1126C65.1436 86.0126 65.6436 85.7126 66.0436 85.3126L70.5436 80.8126L100.244 51.1126C101.244 50.0126 101.244 48.2126 100.144 47.1126Z" fill="currentColor"/>
</svg>
