<svg width="128" height="128" viewBox="0 0 128 128" fill="none" xmlns="http://www.w3.org/2000/svg">
<path fill-rule="evenodd" clip-rule="evenodd" d="M98.3633 80.9498C103.263 80.9498 107.363 84.9498 107.363 89.9498C107.363 90.7498 107.263 91.4498 107.163 92.1498L41.5633 38.2498C45.0633 35.0498 49.1633 32.6498 53.8633 31.2498V28.0498C53.8633 23.1498 57.9633 19.0498 62.8633 19.0498C67.7633 19.0498 71.8633 23.0498 71.8633 28.0498V31.2498C84.9633 35.1498 94.5633 47.3498 94.5633 61.6498V80.9498H98.3633ZM27.0633 32.1497L107.763 98.5497C109.963 100.35 110.263 103.45 108.463 105.55C107.463 106.75 105.963 107.35 104.563 107.35C103.463 107.35 102.263 107.05 101.363 106.25L92.4633 98.9497H76.6633C76.1633 104.55 70.1633 108.95 62.7633 108.95C55.3633 108.95 49.3633 104.55 48.8633 98.9497H27.3633C22.4633 98.9497 18.3633 94.9497 18.3633 89.9497C18.3633 85.0497 22.3633 80.9497 27.3633 80.9497H31.1633V61.6497C31.1633 57.6497 31.9633 53.7497 33.3633 50.2497L20.7633 39.8497C18.6633 38.1497 18.2633 34.9497 20.0633 32.8497C21.7633 30.7497 24.9633 30.3497 27.0633 32.1497Z" fill="currentColor"/>
</svg>
