<svg width="128" height="128" viewBox="0 0 128 128" fill="none" xmlns="http://www.w3.org/2000/svg">
<path fill-rule="evenodd" clip-rule="evenodd" d="M99.5965 80.9498H95.7965V61.6498C95.7965 47.3498 86.1965 35.1498 73.0965 31.2498V28.0498C73.0965 23.0498 68.9965 19.0498 64.0965 19.0498C59.1965 19.0498 55.0965 23.1498 55.0965 28.0498V31.2498C41.9965 35.1498 32.3965 47.3498 32.3965 61.6498V80.9498H28.5965C23.5965 80.9498 19.5965 85.0498 19.5965 89.9498C19.5965 94.9498 23.6965 98.9498 28.5965 98.9498H50.0965C50.5965 104.55 56.5965 108.95 63.9965 108.95C71.3965 108.95 77.3965 104.55 77.8965 98.9498H99.3965C104.396 98.9498 108.396 94.8498 108.396 89.9498C108.596 84.9498 104.496 80.9498 99.5965 80.9498ZM24.1965 52.7497C21.4965 52.1497 21.4965 49.1497 21.5965 48.5497C23.4965 38.6497 27.4965 32.3497 34.8965 27.4497C35.3965 27.1497 38.5965 25.8497 40.2965 28.1497C41.8965 30.3497 39.2965 32.8497 38.6965 33.1497C32.7965 37.0497 29.8965 41.7497 28.3965 49.8497C28.1965 51.1497 26.8965 53.3497 24.1965 52.7497ZM106.996 48.5497C107.096 49.1497 107.096 52.1497 104.396 52.7497C101.696 53.3497 100.396 51.1497 100.196 49.8497C98.6965 41.7497 95.7965 37.0497 89.8965 33.1497C89.2965 32.8497 86.6965 30.3497 88.2965 28.1497C89.9965 25.8497 93.1965 27.1497 93.6965 27.4497C101.096 32.3497 105.096 38.6497 106.996 48.5497Z" fill="currentColor"/>
</svg>
