<svg width="128" height="128" viewBox="0 0 128 128" fill="none" xmlns="http://www.w3.org/2000/svg">
  <path
    d="M64 125.8C98.1311 125.8 125.8 98.1314 125.8 64.0002C125.8 29.869 98.1311 2.2002 64 2.2002C29.8688 2.2002 2.19995 29.869 2.19995 64.0002C2.19995 98.1314 29.8688 125.8 64 125.8Z"
    fill="#0064C8" />
  <path
    d="M86.8001 31.9001H84.3001V28.4001C84.3001 25.5001 81.9 23.1001 79 23.1001C76.1 23.1001 73.7 25.5001 73.7 28.4001V31.9001H54.7001V28.4001C54.7001 25.5001 52.3001 23.1001 49.4001 23.1001C46.5001 23.1001 44 25.5001 44 28.4001V31.9001H41.5C33.7 31.9001 27.3 38.3001 27.3 46.1001V88.6001C27.3 96.4001 33.7 102.8 41.5 102.8H86.9001C94.7001 102.8 101.1 96.4001 101.1 88.6001V46.1001C101 38.3001 94.6001 31.9001 86.8001 31.9001ZM89.7 88.6001C89.7 90.2001 88.4001 91.4001 86.9001 91.4001H41.5C39.9 91.4001 38.7001 90.1001 38.7001 88.6001V56.0001H89.7V88.6001Z"
    fill="white" />
  <path
    d="M50.2001 59.8999H46.3C43.6 59.8999 41.3 62.0999 41.3 64.8999C41.3 67.6999 43.5 69.8999 46.3 69.8999H50.2001C52.9001 69.8999 55.2001 67.6999 55.2001 64.8999C55.2001 62.0999 52.9001 59.8999 50.2001 59.8999Z"
    fill="white" />
  <path
    d="M65.9 59.8999H62C59.3 59.8999 57 62.0999 57 64.8999C57 67.6999 59.2 69.8999 62 69.8999H65.9C68.6 69.8999 70.9 67.6999 70.9 64.8999C70.9 62.0999 68.7 59.8999 65.9 59.8999Z"
    fill="white" />
  <path
    d="M81.7 59.8999H77.8C75.1 59.8999 72.8 62.0999 72.8 64.8999C72.8 67.6999 75 69.8999 77.8 69.8999H81.7C84.4 69.8999 86.7 67.6999 86.7 64.8999C86.7 62.0999 84.4 59.8999 81.7 59.8999Z"
    fill="white" />
</svg>