<svg width="128" height="128" viewBox="0 0 128 128" fill="none" xmlns="http://www.w3.org/2000/svg">
<path fill-rule="evenodd" clip-rule="evenodd" d="M52.1 65.3002H41.6C40.1 61.4002 36.4 58.6002 32.1 58.7002C32 57.8002 32 57.0002 32 56.2002V56.2002C32 38.5002 46.3 24.2002 64 24.2002C81.7 24.2002 96 38.5002 96 56.2002V58.7002C91.7 58.7002 88 61.5002 86.5 65.4002H76.5C76.7 64.4002 76.8 63.4002 76.8 62.3002C76.8 55.2608 71.0987 52.5466 66.908 50.5516L66.8 50.5002C66.6298 50.4151 66.4595 50.3305 66.2903 50.2465C64.2727 49.2448 62.4 48.3151 62.4 47.3002C62.4 46.2002 62.6 45.4002 64.9 45.4002C66.7 45.4002 68 46.0002 69.9 47.7002C70.1 48.0002 70.5 48.1002 70.8 48.1002H70.9C71.3 48.1002 71.7 47.9002 71.9 47.6002L76.1 42.7002C76.6 42.1002 76.6 41.3002 76.1 40.8002C73.8 38.3002 71.2 36.8002 68.3 36.1002V31.7002C68.3 30.9002 67.7 30.3002 66.9 30.3002H61.3C60.5 30.3002 59.9 30.9002 59.9 31.7002V36.3002C54.6 37.8002 51.5 42.0002 51.5 47.7002C51.5 54.1832 56.9714 56.9856 61.0679 59.0837L61.1 59.1002C61.1793 59.1431 61.2584 59.1859 61.3373 59.2286C63.6494 60.4795 65.8 61.6431 65.8 62.9002C65.8 64.1002 65.5 65.0002 62.9 65.0002C60.7 65.0002 58.6 64.1002 56 62.1002C55.7 61.9002 55.4 61.8002 55.1 61.8002H54.9C54.6 61.8002 54.2 62.1002 54 62.4002L52.1 65.3002ZM88.6 68.1004C89 64.4004 92.2 61.4004 96 61.4004C100.1 61.4004 103.4 64.8004 103.4 68.8004V73.8004V83.2004V98.1004C103.4 101.2 100.8 103.8 97.7 103.8H30.3C27.2 103.8 24.6 101.2 24.6 98.1004V83.2004V73.8004V68.8004C24.6 64.7004 27.9 61.4004 32 61.4004C35.9 61.4004 39.1 64.4004 39.4 68.1004H88.6Z" fill="currentColor"/>
</svg>
