<svg width="128" height="128" viewBox="0 0 128 128" fill="none" xmlns="http://www.w3.org/2000/svg">
<path d="M47.35 59.4502H23.95C17.35 59.4502 11.95 54.0502 11.95 47.4502V23.9502C11.95 17.3502 17.35 11.9502 23.95 11.9502H47.35C53.95 11.9502 59.35 17.3502 59.35 23.9502V47.3502C59.35 54.0502 53.95 59.4502 47.35 59.4502Z" fill="currentColor"/>
<path d="M104.05 11.9502H80.6499C74.0499 11.9502 68.6499 17.3502 68.6499 23.9502V47.3502C68.6499 53.9502 74.0499 59.3502 80.6499 59.3502H104.05C110.65 59.3502 116.05 53.9502 116.05 47.3502V23.9502C116.05 17.3502 110.65 11.9502 104.05 11.9502ZM107.55 47.4502C107.55 49.3502 105.95 50.9502 104.05 50.9502H80.6499C78.7499 50.9502 77.1499 49.3502 77.1499 47.4502V23.9502C77.1499 22.0502 78.7499 20.4502 80.6499 20.4502H104.05C105.95 20.4502 107.55 22.0502 107.55 23.9502V47.4502Z" fill="currentColor"/>
<path d="M104.05 68.6504H80.6499C74.0499 68.6504 68.6499 74.0504 68.6499 80.6504V104.05C68.6499 110.65 74.0499 116.05 80.6499 116.05H104.05C110.65 116.05 116.05 110.65 116.05 104.05V80.6504C116.05 74.0504 110.65 68.6504 104.05 68.6504ZM107.55 104.15C107.55 106.05 105.95 107.65 104.05 107.65H80.6499C78.7499 107.65 77.1499 106.05 77.1499 104.15V80.6504C77.1499 78.7504 78.7499 77.1504 80.6499 77.1504H104.05C105.95 77.1504 107.55 78.7504 107.55 80.6504V104.15Z" fill="currentColor"/>
<path d="M47.35 68.6504H23.95C17.35 68.6504 11.95 74.0504 11.95 80.6504V104.05C11.95 110.65 17.35 116.05 23.95 116.05H47.35C53.95 116.05 59.35 110.65 59.35 104.05V80.6504C59.35 74.0504 53.95 68.6504 47.35 68.6504ZM50.85 104.15C50.85 106.05 49.25 107.65 47.35 107.65H23.95C22.05 107.65 20.45 106.05 20.45 104.15V80.6504C20.45 78.7504 22.05 77.1504 23.95 77.1504H47.35C49.25 77.1504 50.85 78.7504 50.85 80.6504V104.15Z" fill="currentColor"/>
</svg>
