<svg width="128" height="128" viewBox="0 0 128 128" fill="none" xmlns="http://www.w3.org/2000/svg">
<path d="M63.9999 103.6C42.1999 103.6 24.3999 85.8999 24.3999 63.9999C24.3999 42.1999 42.0999 24.3999 63.9999 24.3999C85.8999 24.3999 103.6 42.0999 103.6 63.9999C103.6 85.7999 85.8999 103.6 63.9999 103.6Z" fill="#0064C8"/>
<path d="M64 27.3C84.3 27.3 100.7 43.7 100.7 64C100.7 84.3 84.3 100.7 64 100.7C43.7 100.7 27.3 84.3 27.3 64C27.3 43.7 43.7 27.3 64 27.3ZM64 21.5C40.6 21.5 21.5 40.6 21.5 64C21.5 87.4 40.6 106.5 64 106.5C87.4 106.5 106.5 87.4 106.5 64C106.5 40.6 87.4 21.5 64 21.5Z" fill="#004D82"/>
<path d="M52.3999 51.6997H41.7999V86.2997H52.3999V51.6997Z" fill="white"/>
<path d="M69.3999 40.1997H58.7999V86.2997H69.3999V40.1997Z" fill="white"/>
<path d="M86.3999 58.2998H75.7999V86.2998H86.3999V58.2998Z" fill="white"/>
</svg>
