<svg width="128" height="128" viewBox="0 0 128 128" fill="none" xmlns="http://www.w3.org/2000/svg">
<path d="M63.9999 123.633C31.1717 123.633 4.36694 96.9785 4.36694 63.9996C4.36694 31.1714 31.0211 4.3667 63.9999 4.3667C96.9787 4.3667 123.633 31.0208 123.633 63.9996C123.633 96.8279 96.9787 123.633 63.9999 123.633Z" fill="currentColor"/>
<path d="M64 8.73412C94.5694 8.73412 119.266 33.4306 119.266 64C119.266 94.5694 94.5694 119.266 64 119.266C33.4306 119.266 8.73412 94.5694 8.73412 64C8.73412 33.4306 33.4306 8.73412 64 8.73412ZM64 0C28.7624 0 0 28.7623 0 64C0 99.2376 28.7624 128 64 128C99.2377 128 128 99.2376 128 64C128 28.7623 99.2377 0 64 0Z" fill="#0E7778"/>
<path d="M46.5317 45.4771H30.5693V97.5806H46.5317V45.4771Z" fill="white"/>
<path d="M72.1317 28.1597H56.1693V97.5808H72.1317V28.1597Z" fill="white"/>
<path d="M97.7316 55.416H81.7693V97.5807H97.7316V55.416Z" fill="white"/>
</svg>
