<svg width="128" height="128" viewBox="0 0 128 128" fill="none" xmlns="http://www.w3.org/2000/svg">
<path d="M64 103.6C42.2 103.6 24.4 85.9004 24.4 64.0004C24.4 42.2004 42.1 24.4004 64 24.4004C85.9 24.4004 103.6 42.1004 103.6 64.0004C103.6 85.8004 85.9 103.6 64 103.6Z" fill="white"/>
<path d="M64 27.3C84.3 27.3 100.7 43.7 100.7 64C100.7 84.3 84.3 100.7 64 100.7C43.7 100.7 27.3 84.3 27.3 64C27.3 43.7 43.7 27.3 64 27.3ZM64 21.5C40.6 21.5 21.5 40.6 21.5 64C21.5 87.4 40.6 106.5 64 106.5C87.4 106.5 106.5 87.4 106.5 64C106.5 40.6 87.4 21.5 64 21.5Z" fill="#0064C8"/>
<path d="M83.8 50.0002L78 44.2002L64 58.0002L50 44.2002L44.2 50.0002L58 64.0002L44.2 78.0002L50 83.8002L64 70.0002L78 83.8002L83.8 78.0002L70 64.0002L83.8 50.0002Z" fill="#0064C8"/>
</svg>
