<svg width="128" height="128" viewBox="0 0 128 128" fill="none" xmlns="http://www.w3.org/2000/svg">
<path d="M61.1 96.4C60.3 96.4 59.7 95.8 59.7 95V89C55.4 88.4 49.7 86.6 45.6 83.3C45 82.8 44.9 82 45.3 81.3L50.9 73.7C51.2 73.3 51.6 73.1 52 73.1C52.3 73.1 52.5 73.2 52.8 73.3C56.9 76 60.2 77.2 63.6 77.2C68.2 77.2 68.6 75.5 68.6 74C68.6 72 65 70.4 61.2 68.7C54.9 65.9 47.1 62.4 47.1 54C47.1 46.5 51.8 41 59.6 39.2V32.9C59.6 32.1 60.2 31.5 61 31.5H69.4C70.2 31.5 70.8 32.1 70.8 32.9V39C75.4 40 79.2 42 82.7 45.3C83 45.6 83.1 45.9 83.1 46.3C83.1 46.7 83 47 82.7 47.3L76.4 53.8C76.1 54.1 75.8 54.2 75.4 54.2C75.1 54.2 74.8 54.1 74.5 53.9C71.6 51.6 69.3 50.7 66.5 50.7C62.4 50.7 62.1 52.2 62.1 53.7C62.1 55.4 65.5 56.8 69 58.3C75.2 60.9 83.7 64.4 83.7 73.4C83.7 81 78.9 86.6 70.9 88.6V95C70.9 95.8 70.3 96.4 69.5 96.4H61.1Z" fill="currentColor"/>
<path d="M96 45.1C99.3 50.6 101.2 57.1 101.2 64C101.2 84.3 84.7 100.9 64.3 100.9C57.4 100.9 50.9 99 45.4 95.7L39.2 101.9C46.4 106.7 55 109.5 64.3 109.5C89.3 109.5 109.7 89.2 109.7 64.1C109.7 54.8 106.9 46.2 102.1 39L96 45.1Z" fill="currentColor"/>
<path d="M32.8 82.9C29.5 77.4 27.6 70.9 27.6 64C27.6 43.7 44.1 27.1 64.5 27.1C71.4 27.1 77.9 29 83.4 32.3L89.6 26.1C82.4 21.3 73.8 18.5 64.5 18.5C39.4 18.6 19 39 19 64C19 73.3 21.8 81.9 26.6 89.1L32.8 82.9Z" fill="currentColor"/>
<path d="M36.5 107C36.1 107.4 35.5 107.6 35 107.4C34.5 107.2 34.1 106.7 34 106.2L32.8 92.9C32.8 92.5 32.9 92.1 33.1 91.9C33.3 91.6 33.7 91.4 34 91.4L47.6 89.9C48.2 89.8 48.7 90.1 49 90.6C49.3 91.1 49.2 91.7 48.8 92.2L36.5 107Z" fill="currentColor"/>
<path d="M91.9 21.2001C92.3 20.8001 92.9 20.6001 93.4 20.8001C93.9 21.0001 94.3 21.5001 94.4 22.0001L95.6 35.3001C95.6 35.7001 95.5 36.1001 95.3 36.3001C95.1 36.6001 94.7 36.8001 94.4 36.8001L80.8 38.3001C80.2 38.4001 79.7 38.1001 79.4 37.6001C79.1 37.1001 79.2 36.5001 79.6 36.0001L91.9 21.2001Z" fill="currentColor"/>
</svg>
