<svg width="128" height="128" viewBox="0 0 128 128" fill="none" xmlns="http://www.w3.org/2000/svg">
<path d="M101.7 34.1001L93.9 26.3001C92.8 25.2001 91 25.2001 89.9 26.3001L66 50.1001C64.9 51.2001 63.1 51.2001 62 50.1001L38.1 26.3001C37 25.2001 35.2 25.2001 34.1 26.3001L26.3 34.1001C25.2 35.2001 25.2 37.0001 26.3 38.1001L50.1 62.0001C51.2 63.1001 51.2 64.9001 50.1 66.0001L26.3 89.9001C25.2 91.0001 25.2 92.8001 26.3 93.9001L34.1 101.7C35.2 102.8 37 102.8 38.1 101.7L62 77.9001C63.1 76.8001 64.9 76.8001 66 77.9001L89.9 101.7C91 102.8 92.8 102.8 93.9 101.7L101.7 93.9001C102.8 92.8001 102.8 91.0001 101.7 89.9001L77.9 66.0001C76.8 64.9001 76.8 63.1001 77.9 62.0001L101.7 38.1001C102.8 37.0001 102.8 35.2001 101.7 34.1001Z" fill="currentColor"/>
</svg>
