<svg width="128" height="128" viewBox="0 0 128 128" fill="none" xmlns="http://www.w3.org/2000/svg">
<path d="M55.1 53.6001C58.966 53.6001 62.1 50.4661 62.1 46.6001C62.1 42.7341 58.966 39.6001 55.1 39.6001C51.234 39.6001 48.1 42.7341 48.1 46.6001C48.1 50.4661 51.234 53.6001 55.1 53.6001Z" fill="currentColor"/>
<path d="M72.9 53.6001C76.766 53.6001 79.9 50.4661 79.9 46.6001C79.9 42.7341 76.766 39.6001 72.9 39.6001C69.034 39.6001 65.9 42.7341 65.9 46.6001C65.9 50.4661 69.034 53.6001 72.9 53.6001Z" fill="currentColor"/>
<path d="M55.1 71C58.966 71 62.1 67.866 62.1 64C62.1 60.134 58.966 57 55.1 57C51.234 57 48.1 60.134 48.1 64C48.1 67.866 51.234 71 55.1 71Z" fill="currentColor"/>
<path d="M72.9 71C76.766 71 79.9 67.866 79.9 64C79.9 60.134 76.766 57 72.9 57C69.034 57 65.9 60.134 65.9 64C65.9 67.866 69.034 71 72.9 71Z" fill="currentColor"/>
<path d="M55.1 88.3999C58.966 88.3999 62.1 85.2659 62.1 81.3999C62.1 77.5339 58.966 74.3999 55.1 74.3999C51.234 74.3999 48.1 77.5339 48.1 81.3999C48.1 85.2659 51.234 88.3999 55.1 88.3999Z" fill="currentColor"/>
<path d="M72.9 88.3999C76.766 88.3999 79.9 85.2659 79.9 81.3999C79.9 77.5339 76.766 74.3999 72.9 74.3999C69.034 74.3999 65.9 77.5339 65.9 81.3999C65.9 85.2659 69.034 88.3999 72.9 88.3999Z" fill="currentColor"/>
</svg>
