<svg width="128" height="128" viewBox="0 0 128 128" fill="none" xmlns="http://www.w3.org/2000/svg">
<path fill-rule="evenodd" clip-rule="evenodd" d="M84.1 32.9504H86.6C94.4 32.9504 100.8 39.3504 100.9 47.1504V89.6504C100.9 97.4504 94.5 103.85 86.7 103.85H41.3C33.5 103.85 27.1 97.4504 27.1 89.6504V47.1504C27.1 39.3504 33.5 32.9504 41.3 32.9504H43.8V29.4504C43.8 26.5504 46.3 24.1504 49.2 24.1504C52.1 24.1504 54.5 26.5504 54.5 29.4504V32.9504H73.5V29.4504C73.5 26.5504 75.9 24.1504 78.8 24.1504C81.7 24.1504 84.1 26.5504 84.1 29.4504V32.9504ZM86.7 92.4504C88.2 92.4504 89.5 91.2504 89.5 89.6504V57.0504H38.5V89.6504C38.5 91.1504 39.7 92.4504 41.3 92.4504H86.7ZM43.7 62.0503H79.9999V68.0503H43.7V62.0503ZM73.8999 71.5503H43.7V77.5503H73.8999V71.5503ZM43.7 81.1504H76.2999V87.1504H43.7V81.1504Z" fill="currentColor"/>
</svg>
