<svg width="128" height="128" viewBox="0 0 128 128" fill="none" xmlns="http://www.w3.org/2000/svg">
<path d="M64 94C80.5685 94 94 80.5685 94 64C94 47.4315 80.5685 34 64 34C47.4315 34 34 47.4315 34 64C34 80.5685 47.4315 94 64 94Z" fill="#F3C926"/>
<path d="M64 75.4343C68.1713 75.4343 71.5529 67.2806 71.5529 57.2225C71.5529 47.1644 68.1713 39.0107 64 39.0107C59.8286 39.0107 56.447 47.1644 56.447 57.2225C56.447 67.2806 59.8286 75.4343 64 75.4343Z" fill="white"/>
<path d="M64.0001 89.4823C67.2358 89.4823 69.8589 86.8592 69.8589 83.6235C69.8589 80.3877 67.2358 77.7646 64.0001 77.7646C60.7643 77.7646 58.1412 80.3877 58.1412 83.6235C58.1412 86.8592 60.7643 89.4823 64.0001 89.4823Z" fill="white"/>
</svg>
