<svg width="128" height="128" viewBox="0 0 128 128" fill="none" xmlns="http://www.w3.org/2000/svg">
<path d="M81 79.5996C76.8 84.8996 70.4 88.2996 63.2 88.2996C50.7 88.2996 40.5 78.0996 40.5 65.5996C40.5 58.3996 43.8 52.0996 49 47.8996L44.6 43.5996C29.4 48.6996 19 58.8996 19 65.7996C19 74.9996 39.1 91.2996 64 91.2996C72.7 91.2996 80.8 89.1996 87.7 86.1996L81 79.5996Z" fill="currentColor"/>
<path d="M64 40.2998C59.6 40.2998 55.3 40.7998 51.2 41.6998L54.2 44.6998C56.9 43.4998 59.8999 42.8998 63.0999 42.8998C75.5999 42.8998 85.8 53.0998 85.8 65.5998C85.8 68.6998 85.1999 71.5998 84.0999 74.1998L93.3 83.2998C102.9 77.7998 109 70.4998 109 65.7998C109 57.8998 88.9 40.2998 64 40.2998Z" fill="currentColor"/>
<path d="M77.2 67.3999C77.3 66.7999 77.3 66.1999 77.3 65.5999C77.3 57.7999 71 51.3999 63.1 51.3999C62.4 51.3999 61.8 51.4999 61.1 51.5999L77.2 67.3999Z" fill="currentColor"/>
<path d="M55.1 54C51.4 56.5 49 60.8 49 65.6C49 73.4 55.3 79.8 63.2 79.8C68.1 79.8 72.4 77.3 74.9 73.6L55.1 54Z" fill="currentColor"/>
<path d="M36.4 34.2998L96.5 93.6998" stroke="currentColor" stroke-width="6" stroke-miterlimit="10"/>
</svg>
