<svg width="128" height="128" viewBox="0 0 128 128" fill="none" xmlns="http://www.w3.org/2000/svg">
<path d="M64 38.5C39.1 38.5 19 54.3 19 64C19 73.2 39.1 89.5 64 89.5C88.9 89.5 109 72.6 109 64C109 56.1 88.9 38.5 64 38.5ZM63.1 86.5C50.6 86.5 40.4 76.3 40.4 63.8C40.4 51.3 50.6 41.1 63.1 41.1C75.6 41.1 85.8 51.3 85.8 63.8C85.8 76.3 75.7 86.5 63.1 86.5Z" fill="currentColor"/>
<path d="M66.3646 77.6238C73.9968 75.8216 78.723 68.1734 76.9208 60.5412C75.1186 52.9089 67.4705 48.1827 59.8382 49.9849C52.206 51.7871 47.4798 59.4352 49.282 67.0675C51.0842 74.6998 58.7323 79.426 66.3646 77.6238Z" fill="currentColor"/>
</svg>
