<svg width="128" height="128" viewBox="0 0 128 128" fill="none" xmlns="http://www.w3.org/2000/svg">
<path fill-rule="evenodd" clip-rule="evenodd" d="M45 32.8496H83.2C89.8 32.8496 95.2 38.2496 95.3 44.8496V83.1496C95.3 89.7496 89.9 95.1496 83.3 95.1496H45C38.4 95.1496 33 89.7496 33 83.1496V44.8496C33 38.2496 38.4 32.8496 45 32.8496ZM83.2 86.5496C85.1 86.5496 86.7 84.9496 86.7 83.0496H86.8V44.8496C86.8 42.9496 85.2 41.3496 83.3 41.3496H45C43.1 41.3496 41.5 42.9496 41.5 44.8496V83.0496C41.5 84.9496 43.1 86.5496 45 86.5496H83.2ZM47.1 49.1499H81.1V56.5499H47.1V49.1499ZM76.8 60.2495H51.3V67.6495H76.8V60.2495ZM55.6 71.3496H72.6V78.7496H55.6V71.3496Z" fill="white"/>
</svg>
