<svg width="128" height="128" viewBox="0 0 128 128" fill="none" xmlns="http://www.w3.org/2000/svg">
<path fill-rule="evenodd" clip-rule="evenodd" d="M82 37.0498C82 46.9909 73.9412 55.0498 64 55.0498C54.0589 55.0498 46 46.9909 46 37.0498C46 27.1087 54.0589 19.0498 64 19.0498C73.9412 19.0498 82 27.1087 82 37.0498ZM64 59.3498C72.8 59.3498 80.4 54.2498 84 46.8498C93.3 54.9498 99.4 68.5498 99.5 83.9498C99.5 93.1498 97.3 101.75 93.5 108.95H34.6C30.8 101.85 28.6 93.2498 28.6 83.9498C28.6 68.5498 34.7 54.9498 44 46.8498C47.6 54.2498 55.2 59.3498 64 59.3498ZM25.3 83.9495C25.3 75.0495 27.3 66.3495 30.8 58.9495C29.6 59.2495 28.4 59.3495 27.1 59.3495C20.8 59.3495 15.3 55.6495 12.7 50.3495C6.00004 56.1495 1.60004 65.9495 1.60004 77.0495C1.60004 83.7495 3.20004 89.9495 5.90004 95.0495H26.4C25.7 91.4495 25.3 87.7495 25.3 83.9495ZM40.1 43.2495C40.1 50.4292 34.2797 56.2495 27.1 56.2495C19.9203 56.2495 14.1 50.4292 14.1 43.2495C14.1 36.0698 19.9203 30.2495 27.1 30.2495C34.2797 30.2495 40.1 36.0698 40.1 43.2495ZM102.7 83.9495C102.7 75.0495 100.7 66.3495 97.2 58.9495C98.4 59.2495 99.6 59.3495 100.9 59.3495C107.2 59.3495 112.7 55.6495 115.3 50.3495C122 56.1495 126.4 65.9495 126.4 77.0495C126.4 83.7495 124.8 89.9495 122.1 95.0495H101.6C102.3 91.4495 102.7 87.7495 102.7 83.9495ZM113.9 43.2495C113.9 50.4292 108.08 56.2495 100.9 56.2495C93.7203 56.2495 87.9 50.4292 87.9 43.2495C87.9 36.0698 93.7203 30.2495 100.9 30.2495C108.08 30.2495 113.9 36.0698 113.9 43.2495Z" fill="currentColor"/>
</svg>
