<svg width="24" height="24" viewBox="0 0 24 24" fill="none" xmlns="http://www.w3.org/2000/svg">
<path d="M20.3407 9.78979L14.652 4.09688C13.9479 3.39445 12.9942 3 12 3C11.0058 3 10.0521 3.39445 9.348 4.09688L3.65926 9.78979C3.44958 9.99825 3.28334 10.2463 3.17017 10.5195C3.05701 10.7927 2.99917 11.0857 3.00001 11.3815V18.7487C3.00001 19.3457 3.23706 19.9184 3.65902 20.3406C4.08097 20.7628 4.65327 21 5.25001 21H18.75C19.3467 21 19.919 20.7628 20.341 20.3406C20.7629 19.9184 21 19.3457 21 18.7487V11.3815C21.0008 11.0857 20.943 10.7927 20.8298 10.5195C20.7167 10.2463 20.5504 9.99825 20.3407 9.78979ZM14.25 19.4991H9.75V16.5468C9.75 15.9497 9.98705 15.3771 10.409 14.9549C10.831 14.5327 11.4033 14.2955 12 14.2955C12.5967 14.2955 13.169 14.5327 13.591 14.9549C14.0129 15.3771 14.25 15.9497 14.25 16.5468V19.4991ZM19.5 18.7487C19.5 18.9477 19.421 19.1386 19.2803 19.2793C19.1397 19.42 18.9489 19.4991 18.75 19.4991H15.75V16.5468C15.75 15.5517 15.3549 14.5973 14.6516 13.8936C13.9484 13.1899 12.9946 12.7946 12 12.7946C11.0054 12.7946 10.0516 13.1899 9.34835 13.8936C8.64509 14.5973 8.25 15.5517 8.25 16.5468V19.4991H5.25001C5.05109 19.4991 4.86033 19.42 4.71968 19.2793C4.57903 19.1386 4.50001 18.9477 4.50001 18.7487V11.3815C4.5007 11.1826 4.57965 10.992 4.71976 10.8509L10.4085 5.16026C10.8313 4.73921 11.4035 4.50283 12 4.50283C12.5965 4.50283 13.1687 4.73921 13.5915 5.16026L19.2802 10.8532C19.4198 10.9937 19.4987 11.1834 19.5 11.3815V18.7487Z" fill="currentColor"/>
</svg>
