<svg width="128" height="128" viewBox="0 0 128 128" fill="none" xmlns="http://www.w3.org/2000/svg">
<path d="M88.2332 111.55C76.0332 111.45 76.0332 111.45 75.9332 99.1504C75.9332 96.6504 75.9332 94.0504 75.4332 91.7504C73.9332 85.5504 68.5332 81.3504 62.4332 81.4504C56.1332 81.4504 50.5332 85.8504 49.4332 92.4504C48.6332 97.3504 48.7332 102.35 48.7332 107.35C48.7332 110.25 47.7332 111.65 44.6332 111.45C40.3332 111.25 35.9332 111.55 31.6332 111.35C25.1332 110.95 21.2332 107.05 20.9332 100.45C20.7332 95.6504 20.6332 90.7504 20.9332 85.9504C21.1332 83.8504 22.0332 81.3504 23.5332 79.8504C33.1332 69.9504 42.9332 60.1504 52.7332 50.4504C59.2332 44.0504 68.0332 44.2504 74.1332 50.4504C84.0332 60.5504 94.0332 70.5504 103.733 80.8504C105.533 82.7504 106.633 85.9504 106.933 88.6504C107.333 92.7504 107.033 96.9504 106.633 101.05C105.833 108.45 102.133 111.55 94.6332 111.45C92.5332 111.55 90.4332 111.55 88.2332 111.55Z" fill="currentColor"/>
<path d="M63.3331 16.4502C68.2331 16.4502 71.3331 19.8502 74.0331 22.4502C86.7331 34.5502 99.1331 47.1502 111.633 59.5502C114.333 62.2502 117.133 64.8502 119.833 67.6502C123.033 70.9502 123.333 75.3502 120.433 78.3502C117.533 81.4502 112.633 81.3502 109.333 77.9502C98.3331 66.7502 87.1331 55.5502 76.0331 44.2502C68.0331 36.0502 59.3331 35.6502 51.1331 43.7502C40.3331 54.4502 29.6331 65.4502 18.8331 76.2502C15.2331 79.8502 10.9331 80.1502 7.73312 77.1502C4.73312 74.2502 4.83312 69.2502 8.13312 66.0502C22.9331 51.3502 37.6331 36.6502 52.7331 22.2502C55.3331 19.6502 58.3331 16.4502 63.3331 16.4502Z" fill="currentColor"/>
</svg>
