<svg width="128" height="128" viewBox="0 0 128 128" fill="none" xmlns="http://www.w3.org/2000/svg">
<path d="M114 64.0001C114 59.4001 110.2 55.6001 105.6 55.6001H71.5C67.9 43.5001 56.7 34.6001 43.3 34.6001C27.1 34.6001 14 47.8001 14 64.0001C14 80.2001 27.1 93.4001 43.4 93.4001C56.7 93.4001 67.9 84.5001 71.6 72.4001H82.3V87.2001H90.2V82.9001C90.2 80.3001 92.3 78.2001 94.9 78.2001C97.5 78.2001 99.6 80.3001 99.6 82.9001V87.2001H107.5V72.2001C111.2 71.3001 114 68.0001 114 64.0001ZM43.4 79.6001C34.8 79.6001 27.8 72.6001 27.8 64.0001C27.8 55.4001 34.8 48.4001 43.4 48.4001C52 48.4001 59 55.4001 59 64.0001C59 72.6001 52 79.6001 43.4 79.6001Z" fill="currentColor"/>
</svg>
