<svg width="128" height="128" viewBox="0 0 128 128" fill="none" xmlns="http://www.w3.org/2000/svg">
<path d="M64 42.7002C75.7 42.7002 85.3 52.2002 85.3 64.0002C85.3 75.8002 75.8 85.3002 64 85.3002C52.3 85.3002 42.7 75.8002 42.7 64.0002C42.7 52.2002 52.3 42.7002 64 42.7002ZM64 37.7002C49.5 37.7002 37.7 49.5002 37.7 64.0002C37.7 78.5002 49.5 90.3002 64 90.3002C78.5 90.3002 90.3 78.5002 90.3 64.0002C90.3 49.5002 78.5 37.7002 64 37.7002Z" fill="#78868A"/>
<path d="M64.5 88.3002C77.6443 88.3002 88.3 77.6446 88.3 64.5002C88.3 51.3558 77.6443 40.7002 64.5 40.7002C51.3556 40.7002 40.7 51.3558 40.7 64.5002C40.7 77.6446 51.3556 88.3002 64.5 88.3002Z" fill="#98AEB5"/>
<path d="M73.4999 45.2998L46.3999 75.5998C48.4999 79.0998 51.5999 81.8998 55.2999 83.5998L82.4999 53.0998C80.2999 49.7998 77.1999 46.9998 73.4999 45.2998Z" fill="#D9E5E9"/>
</svg>
