<svg width="128" height="128" viewBox="0 0 128 128" fill="none" xmlns="http://www.w3.org/2000/svg">
<path fill-rule="evenodd" clip-rule="evenodd" d="M84 27.3002H90C94.7 27.3002 98.5 31.1002 98.5 35.8002V98.8002C98.5 103.5 94.7 107.3 90 107.3H38C33.3 107.3 29.5 103.5 29.5 98.8002V35.8002C29.5 31.1002 33.3 27.3002 38 27.3002H44C45.7 23.4002 49.7 20.7002 54.2 20.7002H73.8C78.3 20.7002 82.2 23.4002 84 27.3002ZM73.9 29.1002H54.1C52.5 29.1002 51.2 30.4002 51.3 31.9002C51.3 33.4002 52.5 34.7002 54.1 34.7002H73.9C75.4 34.7002 76.7 33.5002 76.7 31.9002C76.7 30.4002 75.5 29.1002 73.9 29.1002ZM85.3 96.8002C86.8 96.8002 88.1 95.6002 88.1 94.0002H88V40.5002C88 39.0002 86.8 37.7002 85.2 37.7002H83.3C81.4 41.0002 77.8 43.2002 73.7 43.2002H54.2C50.2 43.2002 46.6 41.0002 44.6 37.7002H42.7C41.2 37.7002 39.9 38.9002 39.9 40.5002V94.0002C39.9 95.5002 41.1 96.8002 42.7 96.8002H85.3ZM47.7 50.7002H80.4V58.7002H47.7V50.7002ZM80.4 64.9004H47.7V72.9004H80.4V64.9004ZM47.7 79.1001H80.4V87.1001H47.7V79.1001Z" fill="currentColor"/>
</svg>
