<svg width="128" height="128" viewBox="0 0 128 128" fill="none" xmlns="http://www.w3.org/2000/svg">
<path d="M64 103.6C42.2 103.6 24.4 85.8999 24.4 63.9999C24.4 42.1999 42.1 24.3999 64 24.3999C85.9 24.3999 103.6 42.0999 103.6 63.9999C103.6 85.7999 85.9 103.6 64 103.6Z" fill="#0064C8"/>
<path d="M64 27.3C84.3 27.3 100.7 43.7 100.7 64C100.7 84.3 84.3 100.7 64 100.7C43.7 100.7 27.3 84.3 27.3 64C27.3 43.7 43.7 27.3 64 27.3ZM64 21.5C40.6 21.5 21.5 40.6 21.5 64C21.5 87.4 40.6 106.5 64 106.5C87.4 106.5 106.5 87.4 106.5 64C106.5 40.6 87.4 21.5 64 21.5Z" fill="#004D82"/>
<path d="M75.6 42H41V52.6H75.6V42Z" fill="white"/>
<path d="M87.1 59H41V69.6H87.1V59Z" fill="white"/>
<path d="M69 76H41V86.6H69V76Z" fill="white"/>
</svg>
