<svg width="128" height="128" viewBox="0 0 128 128" fill="none" xmlns="http://www.w3.org/2000/svg">
<path d="M95.2 48.4001V48.3001C95.2 31.1001 81.3 17.1001 64 17.1001C46.7 17.1001 32.8 31.1001 32.8 48.3001V48.4001C27 49.2001 22.5 54.2001 22.5 60.3001V98.9001C22.5 105.5 27.9 110.9 34.5 110.9H93.5C100.1 110.9 105.5 105.5 105.5 98.9001V60.3001C105.5 54.2001 101 49.2001 95.2 48.4001ZM68.5 84.2001V94.4001C68.5 96.9001 66.5 98.9001 64 98.9001C61.5 98.9001 59.5 96.9001 59.5 94.4001V84.2001C55.6 82.5001 52.9 78.6001 52.9 74.0001C52.9 67.9001 57.8 62.9001 64 62.9001C70.2 62.9001 75.1 67.9001 75.1 74.0001C75.1 78.6001 72.4 82.5001 68.5 84.2001ZM45.6 48.3001C45.6 38.1001 53.8 29.9001 64 29.9001C74.2 29.9001 82.4 38.1001 82.4 48.3001H45.6Z" fill="currentColor"/>
</svg>
