<svg width="128" height="128" viewBox="0 0 128 128" fill="none" xmlns="http://www.w3.org/2000/svg">
<path d="M63.6 41.85C68.3 41.85 72.5 40.05 76 36.35C79.5 32.65 81.3 28.35 81.3 23.55C81.3 23.05 81.3 22.25 81.2 21.25C80.6 21.35 80.1 21.45 79.8 21.45C75.5 22.05 71.6 24.25 68.3 27.85C65 31.45 63.3 35.35 63.3 39.55C63.4 39.95 63.4 40.75 63.6 41.85ZM80.5 106.55C83.9 106.55 87.6 104.25 91.6 99.65C95.7 95.05 98.8 89.65 100.9 83.45C92.9 79.35 88.9 73.45 88.9 65.75C88.9 59.35 92.1 53.85 98.6 49.25C94.1 43.65 88.2 40.85 80.8 40.85C77.7 40.85 74.9 41.35 72.3 42.25L70.7 42.85L68.6 43.65C67.2 44.15 65.9 44.45 64.7 44.45C63.8 44.45 62.6 44.15 61.1 43.55L59.4 42.85L57.8 42.25C55.5 41.25 53.1 40.85 50.4 40.85C43.4 40.85 37.7 43.25 33.5 47.95C29.2 52.65 27.1 58.95 27.1 66.75C27.1 77.65 30.5 87.75 37.4 97.05C42.1 103.55 46.5 106.75 50.4 106.75C52.1 106.75 53.7 106.45 55.4 105.75L57.5 104.95L59.2 104.35C61.5 103.55 63.6 103.15 65.6 103.15C67.7 103.15 70 103.65 72.7 104.75L74 105.25C76.7 106.05 78.9 106.55 80.5 106.55Z" fill="black"/>
</svg>
