<svg width="360" height="150" viewBox="0 0 360 150" fill="none" xmlns="http://www.w3.org/2000/svg">
<path d="M332.5 107.9C332.4 106.6 332.1 105.4 331.4 104.2C331.6 103.3 331.8 102.3 331.8 101.3V91.6998C331.8 91.1998 331.8 90.7998 331.7 90.2998C333 88.6998 333.8 86.6998 333.8 84.3998C333.8 81.9998 333 79.8998 331.5 78.2998C331.5 77.8998 331.6 77.4998 331.6 77.0998C331.6 76.1998 331.5 75.3998 331.3 74.4998C332.8 72.7998 333.7 70.4998 333.7 67.8998C333.7 62.2998 329.6 58.1998 324 58.1998H295.6C293.7 58.1998 291.8 58.6998 290.2 59.4998C288.4 57.2998 285.6 55.8998 282.2 55.8998C276.2 55.8998 271.9 60.0998 271.9 66.0998V68.9998C271.6 69.0998 271.2 69.2998 270.9 69.4998C270.4 68.3998 269.7 67.2998 268.8 66.3998C267.8 65.3998 266.5 64.5998 265.2 63.9998C265.2 63.8998 265.1 63.7998 265.1 63.5998C264.6 61.6998 263 58.3998 258 56.9998C256.8 56.5998 255.6 56.3998 254.4 56.3998C251.6 56.3998 249 57.3998 247 59.3998C245.1 57.1998 242.3 55.8998 238.8 55.8998C235.4 55.8998 232.5 57.1998 230.6 59.3998C229.7 58.5998 228.8 57.9998 227.8 57.4998C226.3 56.7998 224.8 56.3998 223.2 56.3998C221.9 56.3998 220.6 56.6998 219.5 57.0998L218.6 57.3998C215.8 58.4998 213.8 60.5998 213 63.1998C212.9 63.3998 212.9 63.5998 212.8 63.8998C211.9 64.1998 211.2 64.6998 210.4 65.1998C209 61.1998 205.3 58.6998 200.6 58.6998C199 58.6998 197.5 58.9998 196.2 59.4998C194.3 57.2998 191.5 55.9998 188.1 55.9998C184.8 55.9998 181.9 57.2998 180.1 59.3998C178.9 58.8998 177.5 58.6998 176.1 58.6998C173.5 58.6998 171.2 59.4998 169.4 60.8998C167.6 58.2998 164.6 56.5998 160.9 56.5998C154.9 56.5998 150.6 60.7998 150.6 66.8998V67.8998C150.4 67.9998 150.1 68.0998 149.9 68.1998C149.6 65.4998 148.5 62.9998 146.6 61.1998C146 60.5998 145.4 60.0998 144.7 59.6998C144.7 59.2998 144.7 58.9998 144.7 58.5998C144.7 52.4998 140.5 48.2998 134.4 48.2998H88.4C82.3 48.2998 78.1 52.4998 78.1 58.5998C78.1 59.0998 78.1 59.4998 78.2 59.8998C77.7 60.2998 77.1 60.6998 76.7 61.1998C74.5 63.3998 73.3 66.3998 73.3 69.5998V77.3998C73.3 82.9998 76.8 87.1998 82 88.0998C81.2 89.3998 80.8 90.9998 80.7 92.5998C75.7 93.3998 72.4 97.3998 72.4 102.8C72.4 106.8 74.3 110 77.3 111.8C77 112.9 76.9 114.2 77 115.8C77.2 118.6 77.9 120.7 79.3 122.5C81.1 124.7 83.8 125.8 86.9 125.8C87.1 125.8 87.3 125.8 87.3 125.8C89.3 125.8 92.7 125.7 97.4 125.5C109.9 125.1 120 124.8 127.5 124.5C129.9 126.3 132.4 126.7 134.1 126.7C135.8 126.7 137.6 126.3 139.4 125.5C140.7 124.9 144.7 123 145.9 118.9C146.2 118 146.4 116.8 146.3 115.3C147 116.2 147.8 116.9 148.5 117.4C150.1 118.4 151.9 118.9 153.8 118.9C154.7 118.9 155.7 118.8 156.8 118.5L160.4 117.6C161.5 117.3 162.3 117.1 163 116.9C163.6 116.8 164.3 116.6 165.1 116.4C165.4 122.1 169.5 126 175.4 126C177.3 126 179 125.6 180.5 124.8C181.7 125.2 182.9 125.5 184.2 125.5C185.7 125.5 187.2 125.2 188.5 124.6C189.8 125.2 191.2 125.5 192.8 125.5C193.7 125.5 194.5 125.4 195.4 125.2C196.8 125.8 198.3 126.2 199.9 126.2C200 126.2 200.5 126.2 200.5 126.2H200.7H200.9C203.1 126 205.1 125.3 206.8 124.2C209 122.9 210.6 120.9 211.4 118.5C211.5 118.2 211.6 117.9 211.6 117.6C212.7 118 213.8 118.2 215.1 118.2H220.1C220.3 118.8 220.5 119.4 220.7 120C221.5 121.9 224.2 126.3 231.2 126.3H231.3C235.9 126.2 238.9 125.9 241.1 125.2C244 124.3 246.1 122.7 247.5 120.4C247.9 119.7 248.3 119 248.5 118.2H262.7C266.6 118.2 269.7 116.2 271.2 113C271.4 113.1 271.6 113.2 271.8 113.2V115.9C271.8 121.9 276 126.1 282.1 126.1C285.5 126.1 288.4 124.7 290.2 122.4C291.8 123.2 293.6 123.7 295.5 123.7H324.5C330.2 123.7 334.3 119.5 334.3 113.8C334.3 111.5 333.7 109.5 332.5 107.9Z" fill="#0064C8"/>
<path d="M134 122.4C132.6 122.4 130.7 122 128.8 120.2C121.3 120.5 110.7 120.8 97.1 121.2C92.4 121.3 89.1 121.4 87.1 121.5C87 121.5 86.9 121.5 86.8 121.5C84.5 121.5 83.2 120.5 82.5 119.7C81.7 118.7 81.3 117.4 81.1 115.4C80.9 113.3 81.4 111.6 82.6 110.3C83.1 109.8 83.8 109.2 84.9 108.8H82.6C78.9 108.8 76.5 106.5 76.5 102.7C76.5 98.8998 78.8 96.5998 82.6 96.5998H85.6C85.1 95.6998 84.8 94.5998 84.8 93.2998C84.8 90.9998 85.8 89.1998 87.4 88.1998C86.6 87.2998 86.2 85.9998 86.2 84.4998C86.2 84.1998 86.2 83.8998 86.3 83.5998C85.6 83.7998 84.9 83.8998 84 83.8998C79.9 83.8998 77.4 81.3998 77.4 77.2998V69.4998C77.4 67.3998 78.1 65.4998 79.5 64.0998C80.5 63.0998 81.8 62.3998 83.2 62.0998C82.6 61.0998 82.2 59.8998 82.2 58.3998C82.2 54.6998 84.5 52.2998 88.3 52.2998H134.5C138.2 52.2998 140.6 54.5998 140.6 58.3998C140.6 59.7998 140.3 60.9998 139.6 61.9998C141.2 62.2998 142.5 62.8998 143.6 63.9998C145 65.3998 145.7 67.2998 145.7 69.3998V76.9998C145.7 81.0998 143.1 83.6998 139 83.6998C138.2 83.6998 137.4 83.5998 136.7 83.3998C136.7 83.6998 136.8 83.9998 136.8 84.2998C136.8 85.6998 136.4 86.8998 135.7 87.8998C137.5 88.7998 138.6 90.6998 138.6 93.0998C138.6 94.3998 138.3 95.4998 137.8 96.3998H140.5C144.2 96.3998 146.6 98.6998 146.6 102.5C146.6 106.3 144.3 108.6 140.5 108.6H136.5C137.5 109.4 138.5 110.3 139.5 111.1L139.6 111.2C142.2 113.7 142.2 115.9 141.8 117.2C141.2 119.3 139.2 120.4 137.7 121.3C136.4 122.1 135.1 122.4 134 122.4Z" fill="white"/>
<path d="M130.6 117.899C130.4 117.699 130.2 117.499 130 117.299C122.5 117.599 111.5 117.899 97.1 118.399C92.4 118.499 89.1 118.599 87.1 118.699C86 118.699 85.2 118.499 84.7 117.899C84.3 117.399 84.1 116.499 84 115.199C83.8 112.699 84.9 111.399 87.3 111.399C88.4 111.399 90 111.299 92.3 111.299C93 110.199 94.1 108.399 95.4 105.999H82.6C80.4 105.999 79.4 104.899 79.4 102.799C79.4 100.599 80.5 99.5994 82.6 99.5994H111.5H140.4C142.6 99.5994 143.6 100.699 143.6 102.799C143.6 104.999 142.5 105.999 140.4 105.999H128.1C131.5 108.399 134.6 110.899 137.5 113.499C138.7 114.699 139.2 115.699 138.9 116.599C138.7 117.399 137.7 118.199 136.1 118.999C134.1 119.999 132.2 119.599 130.6 117.899ZM111.4 88.5994C108.7 88.5994 107.3 87.2994 107.3 84.5994V71.1994H89.5C88.3 71.1994 87.8 71.7994 87.8 72.8994V77.3994C87.8 79.8994 86.6 81.0994 84.1 81.0994C81.6 81.0994 80.4 79.8994 80.4 77.3994V69.5994C80.4 68.1994 80.8 67.0994 81.7 66.1994C82.6 65.2994 83.7 64.8994 85.1 64.8994H107.3V61.7994H88.4C86.2 61.7994 85.2 60.6994 85.2 58.5994C85.2 56.3994 86.3 55.3994 88.4 55.3994H111.4H134.5C136.7 55.3994 137.7 56.4994 137.7 58.5994C137.7 60.7994 136.6 61.7994 134.5 61.7994H115.3V64.9994H138.2C139.6 64.9994 140.7 65.3994 141.6 66.2994C142.5 67.1994 142.9 68.2994 142.9 69.6994V77.2994C142.9 79.8994 141.6 81.1994 139 81.1994C136.4 81.1994 135 79.8994 135 77.2994V72.9994C135 71.7994 134.4 71.2994 133.3 71.2994H115.3V84.5994C115.4 87.2994 114 88.5994 111.4 88.5994ZM90.8 96.4994C88.7 96.4994 87.7 95.4994 87.7 93.3994C87.7 91.2994 88.7 90.2994 90.8 90.2994H132.7C134.8 90.2994 135.8 91.2994 135.8 93.3994C135.8 95.4994 134.8 96.4994 132.7 96.4994H111.7H90.8ZM91.8 87.3994C90 87.3994 89.1 86.4994 89.1 84.6994C89.1 82.8994 90 81.9994 91.8 81.9994H101.9C103.7 81.9994 104.6 82.8994 104.6 84.6994C104.6 86.4994 103.7 87.3994 101.9 87.3994H96.9H91.8ZM93.3 79.2994C91.5 79.2994 90.6 78.3994 90.6 76.5994C90.6 74.7994 91.5 73.8994 93.3 73.8994H97.6H102C103.8 73.8994 104.7 74.7994 104.7 76.5994C104.7 78.3994 103.8 79.2994 102 79.2994H93.3ZM101.5 111.099C103.1 111.099 105.5 110.999 108.8 110.999C114.8 110.899 119.3 110.799 122.3 110.699C121.8 110.299 121 109.699 119.9 108.899C118.7 107.999 118.8 107.199 120.2 106.499L121.3 105.999H113.4H105.5C104.7 107.099 103.5 108.599 101.9 110.499C101.7 110.799 101.6 110.999 101.5 111.099ZM120.8 79.2994C119 79.2994 118.1 78.3994 118.1 76.5994C118.1 74.7994 119 73.8994 120.8 73.8994H129.6C131.4 73.8994 132.3 74.7994 132.3 76.5994C132.3 78.3994 131.4 79.2994 129.6 79.2994H125.2H120.8ZM120.8 87.3994C119 87.3994 118.1 86.4994 118.1 84.6994C118.1 82.8994 119 81.9994 120.8 81.9994H131.3C133.1 81.9994 134 82.8994 134 84.6994C134 86.4994 133.1 87.3994 131.3 87.3994H126H120.8Z" fill="#0064C8"/>
<path d="M199.8 121.8C198.3 121.8 197 121.5 195.9 120.7C195.8 120.6 195.7 120.6 195.7 120.5C194.9 121 193.9 121.2 192.7 121.2C190.9 121.2 189.4 120.6 188.4 119.4C187.4 120.5 186 121.2 184.1 121.2C182.4 121.2 181 120.6 180 119.6C179 120.9 177.3 121.7 175.3 121.7C171.6 121.7 169.3 119.4 169.3 115.7V110.8C168.9 110.9 168.3 111.1 167.6 111.2C165.1 111.9 163.2 112.4 161.9 112.7C161.3 112.9 160.4 113.1 159.3 113.4L155.7 114.3C155 114.5 154.3 114.6 153.7 114.6C152.6 114.6 151.5 114.3 150.7 113.8C149.4 113 148.6 111.6 148.1 109.6C147.7 107.7 147.8 106.1 148.4 104.9C149.1 103.6 150.4 102.7 152.1 102.2C151.3 101.3 150.8 100.1 150.8 98.4998C150.7 94.7998 150.3 90.7998 149.6 86.4998C149.3 84.8998 149.6 83.3998 150.4 82.2998C149.2 81.2998 148.5 79.6998 148.5 77.5998C148.5 73.8998 150.8 71.5998 154.5 71.5998H154.8V67.0998C154.8 63.3998 157.1 61.0998 160.8 61.0998C164.5 61.0998 166.8 63.3998 166.8 67.0998V71.5998C168 71.5998 169.1 71.7998 170 72.2998V69.0998C170 65.3998 172.3 62.9998 176.1 62.9998C179 62.9998 181.1 64.3998 181.8 66.7998V66.4998C181.8 62.6998 184.2 60.2998 188.1 60.2998C191.9 60.2998 194.3 62.6998 194.3 66.4998C194.3 64.4998 196.8 62.9998 200.6 62.9998C204.4 62.9998 206.8 65.3998 206.8 69.1998V77.1998C206.8 78.9998 206.2 80.5998 205.1 81.7998C207.3 82.5998 208.6 84.5998 208.6 87.3998C208.6 90.1998 207.3 92.2998 205 92.9998C205.3 93.1998 205.5 93.3998 205.7 93.5998C206.9 94.7998 207.6 96.4998 207.6 98.3998V112.7C207.6 114.5 207.4 115.8 207.1 116.8C206.6 118.3 205.6 119.6 204.3 120.4C203 121.2 201.3 121.8 199.8 121.8Z" fill="white"/>
<path d="M152.3 111.4C151.7 111 151.2 110.2 150.9 108.9C150.6 107.7 150.6 106.8 151 106.2C151.4 105.5 152.1 105.1 153.4 104.8C154.6 104.6 156.6 104.2 159.4 103.6C160.9 103.3 162 103 162.8 102.9L161.5 102.6C161.2 102.6 161 102.4 160.9 102.2C160.8 102 160.7 101.8 160.8 101.6C161.8 96.9996 162.6 91.5996 163.2 85.3996C163.4 83.0996 164.6 82.1996 166.9 82.6996C168.9 83.0996 169.7 84.3996 169.4 86.4996C168.3 92.5996 167.2 97.7996 166.2 102.2L167.9 101.8C170.1 101.3 171.3 102.2 171.6 104.4C171.8 106.3 171 107.5 169.1 108C168.7 108.1 168 108.3 167.1 108.5C164.6 109.2 162.7 109.7 161.5 109.9C160.9 110.1 160 110.3 158.9 110.6C157.3 111 156.1 111.3 155.3 111.5C153.9 111.9 152.9 111.8 152.3 111.4ZM154.6 80.7996C152.5 80.7996 151.4 79.6996 151.4 77.5996C151.4 75.4996 152.5 74.3996 154.6 74.3996H157.8V66.9996C157.8 64.8996 158.9 63.7996 161 63.7996C163.1 63.7996 164.2 64.8996 164.2 66.9996V74.3996H167C169.1 74.3996 170.2 75.4996 170.2 77.5996C170.2 79.6996 169.1 80.7996 167 80.7996H160.8H154.6ZM154.5 100.4C154 100.1 153.8 99.3996 153.7 98.3996C153.6 94.5996 153.2 90.4996 152.4 85.9996C152.1 84.1996 152.8 83.1996 154.6 82.7996C156.3 82.3996 157.4 83.0996 157.7 84.7996C158.1 87.5996 158.5 89.7996 158.7 91.4996C158.9 93.6996 159.1 95.7996 159.2 97.6996C159.2 99.1996 158.4 100.1 156.8 100.5C155.8 100.8 155 100.7 154.5 100.4ZM197.6 118.4C196.9 117.9 196.5 117.3 196.3 116.4C195.9 115.2 195.6 114.3 195.3 113.8V115.7C195.3 117.5 194.4 118.3 192.7 118.3C190.9 118.3 190 117.4 190 115.7V100.7H186.8V115.7C186.8 117.5 185.9 118.4 184.1 118.4C182.3 118.4 181.4 117.5 181.4 115.7V100.7H179.7C178.8 100.7 178.4 101.1 178.4 102V115.8C178.4 117.9 177.4 118.9 175.3 118.9C173.2 118.9 172.1 117.9 172.1 115.8V98.5996C172.1 97.3996 172.5 96.4996 173.2 95.7996C173.9 95.0996 174.9 94.6996 176 94.6996H183.1C183.1 94.3996 183.2 93.8996 183.4 93.2996C183.6 92.0996 183.8 91.2996 183.9 90.6996H174C171.9 90.6996 170.9 89.5996 170.9 87.4996C170.9 85.3996 171.9 84.3996 174 84.3996H188.3H202.7C204.8 84.3996 205.8 85.3996 205.8 87.4996C205.8 89.5996 204.8 90.6996 202.7 90.6996H191.8L190.2 94.6996H201C202.2 94.6996 203.1 95.0996 203.8 95.7996C204.5 96.4996 204.9 97.4996 204.9 98.5996V112.9C204.9 114.3 204.8 115.4 204.5 116.1C204.2 116.9 203.7 117.6 202.9 118C202.1 118.5 201.1 118.8 200 119C199 119.1 198.2 118.8 197.6 118.4ZM176.8 81.1996C175.6 81.1996 174.7 80.7996 174 80.0996C173.3 79.3996 172.9 78.3996 172.9 77.2996V69.0996C172.9 66.8996 174 65.8996 176.1 65.8996C178.3 65.8996 179.3 66.9996 179.3 69.0996V73.5996C179.3 74.5996 179.8 74.9996 180.7 74.9996H184.6V66.4996C184.6 64.2996 185.7 63.0996 188 63.0996C190.2 63.0996 191.4 64.1996 191.4 66.4996V74.9996H195.7C196.7 74.9996 197.1 74.4996 197.1 73.5996V69.1996C197.1 66.9996 198.2 65.7996 200.5 65.7996C202.8 65.7996 203.9 66.8996 203.9 69.1996V77.1996C203.9 78.3996 203.5 79.2996 202.8 79.9996C202.1 80.6996 201.1 81.0996 200 81.0996H188.4L176.8 81.1996ZM198 113.5C198.4 113.5 198.7 113.3 198.7 112.8V102.1C198.7 101.1 198.2 100.7 197.3 100.7H195.4V107.1V113.5C196.1 113.5 197 113.5 198 113.5Z" fill="#0064C8"/>
<path d="M231.1 122C226.8 122 225.1 119.7 224.5 118.3C223.6 116.4 223.9 114.9 224.3 113.9H215C211.9 113.9 209.8 111.8 209.8 108.7C209.8 106 211.3 104.1 213.7 103.7C213.4 103 213.3 102.3 213.3 101.5C213.3 99.2 214.4 97.5 216.1 96.8C216 96.5 215.9 96.3 215.8 96C215.3 93.9 215.9 92.5 216.5 91.7C217.3 90.6 218.6 90 220.3 89.9C219.7 88.9 219.4 87.7 219.4 86.4V86.1C218.6 86.5 217.6 86.7 216.5 86.7C212.7 86.7 210.4 84.3 210.4 80.6V74.5C210.4 72.6 211.1 70.9 212.3 69.7C213.5 68.4 215.2 67.8 217.1 67.8C216.7 66.6 216.9 65.6 217.1 65C217.4 64 218.2 62.6 220.2 61.8L221 61.5C221.7 61.2 222.4 61.1 223.2 61.1C224.1 61.1 225 61.3 225.9 61.7C227.2 62.3 228.3 63.3 229.2 64.6C229.9 65.7 230.3 66.7 230.5 67.8H232.4V66.9C232.4 63 234.8 60.5 238.8 60.5C242.8 60.5 245.2 62.9 245.2 66.9V67.8H246.2C246.4 67.4 246.6 66.9 247 66.5C247.7 65.7 248.3 64.9 248.8 64.2C250.6 61.5 252.8 61 254.4 61C255.2 61 255.9 61.1 256.7 61.4C259 62.1 260.5 63.3 260.9 65.1C261.1 66 261.1 66.9 260.8 67.8H260.9C262.8 67.8 264.5 68.5 265.7 69.7C267 71 267.6 72.6 267.6 74.5V80.5C267.6 84.4 265.2 86.8 261.3 86.8C260.1 86.8 259.1 86.6 258.3 86.2V86.6C258.3 87.7 258.1 88.7 257.7 89.5C257.9 89.7 258.1 89.8 258.3 90C259.4 91 260.8 92.7 260.5 94.8C260.4 95.4 260.2 96 259.7 96.6C262.8 96.6 264.8 98.7 264.8 101.8C264.8 102.7 264.7 103.4 264.4 104.1C266.6 104.7 267.9 106.5 267.9 109.1C267.9 112.3 265.9 114.3 262.7 114.3H245C244.9 116 244.5 117.4 243.8 118.5C242.9 119.9 241.4 121 239.6 121.4C237.9 121.7 235.3 121.9 231.1 122Z" fill="white"/>
<path d="M231.1 119.1C229 119.1 227.7 118.4 227.1 117.1C226.1 114.9 227.3 113.8 230.6 113.9C232.3 114 233.4 114 234 113.9C235 113.9 235.4 113.5 235.4 112.7V111H215C213.4 111 212.7 110.2 212.7 108.6C212.7 107 213.5 106.3 215 106.3H235.4V103.8H218.5C216.9 103.8 216.2 103 216.2 101.4C216.2 99.8 217 99.1 218.5 99.1H235.4V96.9C229.8 97.1 225.1 97.2 221.2 97.1C219.8 97.1 218.9 96.5 218.6 95.2C218.2 93.5 219 92.6 221 92.6C235.2 92.4 246.2 91.8 253.8 90.7C254.3 90.6 254.8 90.7 255.2 90.8C255.5 91 255.9 91.3 256.3 91.7C257.3 92.7 257.8 93.5 257.7 94.1C257.6 94.7 256.9 95.1 255.5 95.3C251.5 95.8 247.1 96.2 242.2 96.6V99H259.6C261.2 99 261.9 99.8 261.9 101.3C261.9 102.9 261.1 103.7 259.6 103.7H242.2V106.2H253.6H262.7C264.3 106.2 265 107 265 108.5C265 110.1 264.2 110.9 262.7 110.9H242.2V112.8C242.2 114.4 241.9 115.7 241.4 116.5C240.9 117.3 240 117.9 238.8 118.3C237.4 118.8 234.8 119.1 231.1 119.1ZM216.4 83.6C214.2 83.6 213.1 82.5 213.1 80.3V74.2C213.1 73 213.5 72.1 214.2 71.4C214.9 70.7 215.9 70.3 217 70.3H221.8C221.5 69.7 221 68.8 220.2 67.5C219.7 66.8 219.5 66.2 219.7 65.5C219.9 64.9 220.4 64.4 221.2 64.1L222 63.8C222.9 63.4 223.8 63.5 224.7 63.9C225.5 64.3 226.3 64.9 226.9 65.8C227.5 66.7 227.8 67.5 227.7 68.3C227.6 69.2 227.2 69.8 226.3 70.2L226.2 70.3H235.3V66.5C235.3 64.1 236.5 63 238.8 63C241.2 63 242.3 64.2 242.3 66.5V70.3H251.3L249.6 69.6C249.2 69.4 248.9 69.2 248.8 68.9C248.7 68.6 248.8 68.3 249.1 68C249.9 67 250.6 66.2 251.1 65.4C252.3 63.6 253.9 63 255.8 63.7C258.7 64.5 259 66.2 256.7 68.6C255.9 69.4 255.4 69.9 255 70.2H260.9C262.1 70.2 263 70.6 263.7 71.3C264.4 72 264.8 73 264.8 74.1V80.1C264.8 82.4 263.7 83.5 261.4 83.5C259.1 83.5 257.9 82.4 257.9 80.1V77.5C257.9 76.5 257.4 76.1 256.5 76.1H238.9H221.3C220.3 76.1 219.9 76.6 219.9 77.5V80.3C219.7 82.5 218.6 83.6 216.4 83.6ZM226.1 90.1C224.9 90.1 224 89.7 223.3 89C222.6 88.3 222.2 87.3 222.2 86.2V82.4C222.2 81.2 222.6 80.3 223.3 79.6C224 78.9 225 78.5 226.1 78.5H238.8H251.5C252.7 78.5 253.6 78.9 254.3 79.6C255 80.3 255.4 81.3 255.4 82.4V86.2C255.4 87.4 255 88.3 254.3 89C253.6 89.7 252.6 90.1 251.5 90.1H226.1ZM230.1 85.8H247.1C248.1 85.8 248.5 85.3 248.5 84.4V84.1C248.5 83.2 248.1 82.8 247.2 82.8H238.6H230.1C229.1 82.8 228.7 83.3 228.7 84.2V84.5C228.7 85.4 229.2 85.8 230.1 85.8Z" fill="#0064C8"/>
<path d="M282.1 121.9C278.4 121.9 276.1 119.6 276.1 115.9V108.8C275.6 109.1 275 109.3 274.3 109.3H274.1C271.5 109.1 270.2 106.4 269.7 105.3C269.2 104.1 268.9 103.2 268.8 102.4V102.3V102.2C268.8 101.1 269.1 99.9996 269.8 98.7996C271.9 94.8996 273.7 90.1996 275 84.5996C271.8 84.2996 269.8 81.9996 269.8 78.5996C269.8 74.8996 272.1 72.4996 275.9 72.4996H276.1V66.0996C276.1 62.3996 278.4 60.0996 282.1 60.0996C285.8 60.0996 288.4 62.1996 288.7 65.8996C288.7 66.2996 288.7 67.1996 288.7 67.1996C288.7 66.6996 289.3 65.4996 290.5 64.2996C291.7 62.9996 293.6 62.3996 295.5 62.3996H323.9C327.2 62.3996 329.4 64.4996 329.4 67.8996C329.4 70.3996 328.2 72.2996 326.2 72.9996C326.9 74.0996 327.3 75.3996 327.3 76.9996C327.3 78.0996 327.1 79.0996 326.8 79.9996C328.5 80.5996 329.6 82.1996 329.6 84.2996C329.6 86.2996 328.6 87.8996 327 88.5996C327.4 89.4996 327.6 90.4996 327.6 91.5996V101.2C327.6 102.8 327.2 103.9 326.6 104.8C327.8 105.8 328.4 107.2 328.3 108.7C328.3 108.9 328.3 109.1 328.2 109.4C329.4 110.4 330.1 111.9 330.1 113.8C330.1 117.2 327.9 119.5 324.5 119.5H295.5C293.6 119.5 291.5 118.8 290.3 117.6C289.1 116.4 288.8 115.7 288.3 114.4V116C288.3 119.5 285.7 121.9 282.1 121.9Z" fill="white"/>
<path d="M282.1 118.999C280 118.999 278.9 117.999 278.9 115.899V97.0994C278.1 99.6994 277.3 102.199 276.3 104.399C275.5 105.899 274.8 106.599 274.2 106.599C273.6 106.599 272.9 105.799 272.2 104.299C271.8 103.499 271.6 102.899 271.6 102.399C271.6 101.799 271.8 101.199 272.2 100.499C274.9 95.4994 277 89.3994 278.5 82.0994H275.9C273.7 82.0994 272.7 80.9994 272.7 78.8994C272.7 76.6994 273.8 75.6994 275.9 75.6994H279V66.4994C279 64.3994 280.1 63.3994 282.2 63.3994C284.3 63.3994 285.3 64.3994 285.3 66.4994V75.6994H287.5C289.7 75.6994 290.7 76.7994 290.7 78.8994C290.7 81.0994 289.6 82.0994 287.5 82.0994H285.3V85.2994C286.9 87.6994 288.8 90.7994 291.1 94.6994C291.4 95.1994 291.5 95.6994 291.4 95.9994C291.3 96.1994 291.1 96.5994 290.7 97.1994L290.6 97.3994C289.8 98.5994 289.1 99.1994 288.6 99.0994C288 99.0994 287.5 98.4994 287 97.1994C287 97.0994 286.9 96.8994 286.8 96.6994C286.2 95.2994 285.7 94.1994 285.4 93.4994V106.399V116.199C285.2 117.999 284.2 118.999 282.1 118.999ZM292.7 115.499C292 114.799 291.6 113.799 291.6 112.699V69.1994C291.6 67.9994 292 67.0994 292.7 66.3994C293.4 65.6994 294.4 65.2994 295.5 65.2994H309H323.9C325.7 65.2994 326.5 66.1994 326.5 67.8994C326.5 69.6994 325.6 70.5994 323.9 70.5994H299.4C298.4 70.5994 298 71.0994 298 71.9994V109.599C298 110.599 298.5 110.999 299.4 110.999H302.4C302 110.499 301.4 109.999 300.7 109.399C300.3 108.999 300.1 108.599 300.1 108.299C300.1 107.899 300.4 107.599 300.9 107.399C302.4 106.699 304 105.899 305.6 104.799H303.3C302.7 104.799 302.2 104.599 301.9 104.299C301.5 103.899 301.4 103.499 301.4 102.899V91.6994C301.4 90.4994 301.8 89.5994 302.5 88.8994C303.2 88.1994 304.2 87.7994 305.3 87.7994H321C322.2 87.7994 323.1 88.1994 323.8 88.8994C324.5 89.5994 324.9 90.5994 324.9 91.6994V101.299C324.9 102.399 324.6 103.199 323.9 103.899C323.3 104.499 322.4 104.899 321.3 104.899H321C321.2 105.099 321.6 105.299 322.1 105.599C323.1 106.199 323.9 106.599 324.4 106.899C325.1 107.399 325.5 107.999 325.4 108.699C325.4 109.399 324.9 109.999 324.1 110.599L323.3 111.199H324.4C326.2 111.199 327.2 112.099 327.2 113.999C327.2 115.899 326.3 116.799 324.4 116.799C324.4 116.799 302.9 116.799 295.7 116.799C295.7 116.799 295.8 116.799 295.4 116.799C294.7 116.799 293.4 116.199 292.7 115.499ZM300.9 86.1994C299.7 86.1994 299.1 85.5994 299.1 84.3994C299.1 83.1994 299.7 82.5994 300.9 82.5994H309.8V80.8994H305.2C302.7 80.8994 301.4 79.5994 301.4 77.0994C301.4 74.5994 302.7 73.2994 305.2 73.2994H309.8V73.1994C309.8 72.4994 310.1 71.8994 310.7 71.4994C311.3 71.0994 311.9 70.8994 312.7 70.8994C313.5 70.8994 314.2 71.0994 314.7 71.4994C315.3 71.8994 315.6 72.4994 315.6 73.1994V73.2994H320.6C323.1 73.2994 324.4 74.5994 324.4 77.0994C324.4 79.6994 323.1 80.8994 320.6 80.8994H315.6V82.5994H324.8C326 82.5994 326.6 83.1994 326.6 84.3994C326.6 85.5994 326 86.1994 324.8 86.1994H312.8H300.9ZM304.2 110.999H312.9H320.2C321.2 110.999 321.3 110.799 320.6 110.299C320.4 110.199 320.2 109.999 319.8 109.799C318.4 108.899 317.3 108.199 316.6 107.799C315.9 107.399 315.6 106.899 315.6 106.399C315.6 105.899 315.9 105.399 316.6 104.999L316.7 104.899H309.6L311 105.799C311.7 106.299 311.8 106.699 311.1 107.199C308.8 108.699 306.5 109.999 304.2 110.999ZM307.4 78.1994H309.8V76.9994C309.8 76.3994 309.5 76.1994 309 76.1994H308.2H307.2C306.8 76.1994 306.6 76.3994 306.6 76.7994V77.3994C306.6 77.8994 306.8 78.1994 307.4 78.1994ZM307 92.3994H318.5V91.3994C318.5 90.9994 318.3 90.7994 317.9 90.7994H312.7H308.4C307.4 90.7994 307 91.2994 307 92.1994V92.3994ZM307 97.0994H318.5V95.3994H312.7H307V97.0994ZM307.7 101.699H317.1C318.1 101.699 318.5 101.199 318.5 100.299V99.9994H312.7H307V101.099C307 101.499 307.3 101.699 307.7 101.699ZM315.6 78.1994H317.3H318.4C318.9 78.1994 319.1 77.9994 319.1 77.4994V76.9994C319.1 76.3994 318.8 76.1994 318.3 76.1994H317C316 76.1994 315.6 76.6994 315.6 77.5994V78.1994Z" fill="#0064C8"/>
<path d="M69.5 102.8C69.5 100.8 69.9 98.8996 70.6 97.1996C67.8 98.3996 64.7 99.0996 61.4 99.0996H61.3C48.5 99.0996 38 88.5996 38 75.6996C38 68.3996 41.3 61.8996 46.6 57.6996C50 54.8996 54.2 52.9996 58.8 52.4996C60.5 48.8996 62.8 45.5996 65.7 42.5996C74.6 33.3996 88.5 27.5996 104.1 27.5996C120 27.5996 134.1 33.6996 142.9 43.0996C145.6 45.9996 147.8 49.1996 149.4 52.5996C150.2 54.2996 150.8 55.9996 151.3 57.7996C153.6 55.3996 156.8 53.8996 160.5 53.8996C159.4 50.2996 157.8 46.8996 155.8 43.6996C158.4 41.8996 161.6 40.8996 165 40.8996C173.3 40.8996 180.1 47.0996 181.1 55.0996C183.1 53.8996 185.6 53.2996 188.2 53.2996C189.2 53.2996 190.1 53.3996 191 53.5996C189.2 40.7996 178.3 30.9996 165 30.9996C159.3 30.9996 154 32.7996 149.7 35.9996C139 24.7996 122.5 17.5996 104 17.5996C81.6 17.5996 62 28.1996 52.3 43.5996C38.3 47.5996 28 60.4996 28 75.6996C28 94.0996 43 109 61.3 109C64.4 109 67.5 108.6 70.3 107.7C69.8 106.3 69.5 104.6 69.5 102.8Z" fill="#55A7FF"/>
</svg>
