<svg width="128" height="128" viewBox="0 0 128 128" fill="none" xmlns="http://www.w3.org/2000/svg">
<mask id="mask0_24_470" style="mask-type:luminance" maskUnits="userSpaceOnUse" x="24" y="24" width="80" height="80">
<path d="M103.7 24.2998H24.3V103.7H103.7V24.2998Z" fill="white"/>
</mask>
<g mask="url(#mask0_24_470)">
<path d="M102.1 64.8998C102.1 62.0998 101.8 59.3998 101.4 56.7998H64V72.1998H85.4C84.5 77.1998 81.7 81.3998 77.5 84.1998V94.1998H90.3C97.8 87.0998 102.1 76.8998 102.1 64.8998Z" fill="#4285F4"/>
<path d="M64 103.599C74.7 103.599 83.7 99.9994 90.3 93.9994L77.5 83.9994C73.9 86.3994 69.4 87.7994 64.1 87.7994C53.8 87.7994 45 80.7994 41.9 71.3994H28.5V81.6994C35.1 94.6994 48.5 103.599 64 103.599Z" fill="#34A853"/>
<path d="M41.8 71.4996C41 69.0996 40.5 66.5996 40.5 63.8996C40.5 61.2996 41 58.6996 41.7 56.3996V46.0996H28.5C25.8 51.4996 24.3 57.4996 24.3 63.8996C24.3 70.2996 25.8 76.3996 28.5 81.6996L41.8 71.4996Z" fill="#FBBC04"/>
<path d="M64 39.9998C69.8 39.9998 75.1 41.9998 79.2 45.8998L90.6 34.5998C83.7 28.1998 74.7 24.2998 64 24.2998C48.5 24.2998 35.1 33.1998 28.5 46.0998L41.8 56.3998C44.9 46.9998 53.7 39.9998 64 39.9998Z" fill="#E94235"/>
</g>
</svg>
