<svg width="128" height="128" viewBox="0 0 128 128" fill="none" xmlns="http://www.w3.org/2000/svg">
<path d="M116.806 103.825L90.4062 77.325C95.7062 69.925 98.8062 60.825 98.8062 51.025C98.8062 25.925 78.5062 5.625 53.4062 5.625C28.3062 5.625 8.00623 25.925 8.00623 51.025C8.00623 76.125 28.3062 96.425 53.4062 96.425C60.8062 96.425 67.7062 94.625 73.9062 91.525C74.2062 91.925 74.5062 92.325 74.9062 92.725L101.406 119.225C105.606 123.425 112.606 123.425 116.806 119.225C121.006 115.025 121.106 108.025 116.806 103.825ZM20.8062 51.025C20.8062 33.025 35.4062 18.425 53.4062 18.425C71.4062 18.425 86.0062 33.025 86.0062 51.025C86.0062 69.025 71.4062 83.625 53.4062 83.625C35.4062 83.625 20.8062 69.025 20.8062 51.025Z" fill="currentColor"/>
</svg>
