<svg width="24" height="24" viewBox="0 0 24 24" fill="none" xmlns="http://www.w3.org/2000/svg">
<path fill-rule="evenodd" clip-rule="evenodd" d="M3.4435 6.2286L12 12.2181L20.5565 6.2286C20.413 5.74902 19.9655 5.39535 19.4419 5.39535H4.55814C4.03446 5.39535 3.58699 5.74902 3.4435 6.2286ZM20.6047 7.89813L12.4001 13.6413C12.1599 13.8095 11.8401 13.8095 11.5999 13.6413L3.39535 7.89813V17.7209C3.39535 18.3589 3.9202 18.8837 4.55814 18.8837H19.4419C20.0798 18.8837 20.6047 18.3589 20.6047 17.7209V7.89813ZM2 6.55814C2 5.14957 3.14957 4 4.55814 4H19.4419C20.8504 4 22 5.14957 22 6.55814V17.7209C22 19.1295 20.8504 20.2791 19.4419 20.2791H4.55814C3.14957 20.2791 2 19.1295 2 17.7209V6.55814Z" fill="currentColor"/>
</svg>
