<svg width="128" height="128" viewBox="0 0 128 128" fill="none" xmlns="http://www.w3.org/2000/svg">
<path d="M105 28.5H23C21.1 28.5 19.3 29.2 17.9 30.2L61.7 69.6C62.4 70.2 63.4 70.6 64.5 70.6C65.6 70.6 66.6 70.2 67.3 69.6L110.6 30.6C109.1 29.3 107.1 28.5 105 28.5Z" fill="currentColor"/>
<path d="M56 75.9001L49.5 70.1001L18.4 98.1001C19.7 99.0001 21.3 99.5001 23.1 99.5001H105.1C107 99.5001 108.8 98.8001 110.3 97.7001L79.4 70.1001L72.9 76.0001C68.3 80.1001 60.6 80.1001 56 75.9001Z" fill="currentColor"/>
<path d="M85.8 64.3999L113.5 89.2999V39.3999L85.8 64.3999Z" fill="currentColor"/>
<path d="M43.1 64.4001L14.5 38.6001V90.1001L43.1 64.4001Z" fill="currentColor"/>
</svg>
