<svg width="24" height="24" viewBox="0 0 24 24" fill="none" xmlns="http://www.w3.org/2000/svg">
<path fill-rule="evenodd" clip-rule="evenodd" d="M5 7.5C5 7.08579 5.30329 6.75 5.67742 6.75H18.3226C18.6967 6.75 19 7.08579 19 7.5C19 7.91421 18.6967 8.25 18.3226 8.25H5.67742C5.30329 8.25 5 7.91421 5 7.5Z" fill="currentColor"/>
<path fill-rule="evenodd" clip-rule="evenodd" d="M5 12C5 11.5858 5.30329 11.25 5.67742 11.25H18.3226C18.6967 11.25 19 11.5858 19 12C19 12.4142 18.6967 12.75 18.3226 12.75H5.67742C5.30329 12.75 5 12.4142 5 12Z" fill="currentColor"/>
<path fill-rule="evenodd" clip-rule="evenodd" d="M5 16.5C5 16.0858 5.30329 15.75 5.67742 15.75H18.3226C18.6967 15.75 19 16.0858 19 16.5C19 16.9142 18.6967 17.25 18.3226 17.25H5.67742C5.30329 17.25 5 16.9142 5 16.5Z" fill="currentColor"/>
</svg>
