<svg width="128" height="128" viewBox="0 0 128 128" fill="none" xmlns="http://www.w3.org/2000/svg">
<path d="M109.247 40.5499H18.8472C17.2472 40.5499 16.0472 39.2499 16.0472 37.7499V28.4499C16.0472 26.8499 17.3472 25.6499 18.8472 25.6499H109.147C110.747 25.6499 111.947 26.9499 111.947 28.4499V37.6499C112.047 39.2499 110.747 40.5499 109.247 40.5499Z" fill="currentColor"/>
<path d="M109.247 71.4498H18.8472C17.2472 71.4498 16.0472 70.1498 16.0472 68.6498V59.3498C16.0472 57.7498 17.3472 56.5498 18.8472 56.5498H109.147C110.747 56.5498 111.947 57.8498 111.947 59.3498V68.6498C112.047 70.1498 110.747 71.4498 109.247 71.4498Z" fill="currentColor"/>
<path d="M109.247 102.35H18.8472C17.2472 102.35 16.0472 101.05 16.0472 99.5502V90.2502C16.0472 88.6502 17.3472 87.4502 18.8472 87.4502H109.147C110.747 87.4502 111.947 88.7502 111.947 90.2502V99.5502C112.047 101.05 110.747 102.35 109.247 102.35Z" fill="currentColor"/>
</svg>
