<svg width="128" height="128" viewBox="0 0 128 128" fill="none" xmlns="http://www.w3.org/2000/svg">
<path d="M41 72.5C45.6944 72.5 49.5 68.6944 49.5 64C49.5 59.3056 45.6944 55.5 41 55.5C36.3056 55.5 32.5 59.3056 32.5 64C32.5 68.6944 36.3056 72.5 41 72.5Z" fill="currentColor"/>
<path d="M64 72.5C68.6944 72.5 72.5 68.6944 72.5 64C72.5 59.3056 68.6944 55.5 64 55.5C59.3056 55.5 55.5 59.3056 55.5 64C55.5 68.6944 59.3056 72.5 64 72.5Z" fill="currentColor"/>
<path d="M87 72.5C91.6944 72.5 95.5 68.6944 95.5 64C95.5 59.3056 91.6944 55.5 87 55.5C82.3056 55.5 78.5 59.3056 78.5 64C78.5 68.6944 82.3056 72.5 87 72.5Z" fill="currentColor"/>
</svg>
