<svg width="128" height="128" viewBox="0 0 128 128" fill="none" xmlns="http://www.w3.org/2000/svg">
<path d="M64 40.7998C60.6 40.7998 57.4 41.0998 54.2 41.6998L62.7 50.1998C63.2 50.1998 63.5999 50.1998 64.0999 50.1998C77.1999 50.1998 89.0999 55.4998 97.6999 64.1998L104.3 57.5998C93.9 47.1998 79.6 40.7998 64 40.7998Z" fill="currentColor"/>
<path d="M30.4 64.0994C34.9999 59.4994 40.5 55.8994 46.5 53.4994L39.4 46.3994C33.6 49.1994 28.3 52.9994 23.7 57.4994L30.4 64.0994Z" fill="currentColor"/>
<path d="M61.8 68.6998L53.9 60.7998C47.4 62.5998 41.6 65.9998 37 70.5998L43.5 77.0998C48.3 72.3998 54.7 69.1998 61.8 68.6998Z" fill="currentColor"/>
<path d="M73 60.5L87.1 74.6L91.1 70.6C86.1 65.7 79.9 62.2 73 60.5Z" fill="currentColor"/>
<path d="M77.4 84.3L73.4 80.3C70.6 78.8 67.4 78 64.1 78C58.6 78 53.7 80.2 50.1 83.8L64.1 97.8L77.4 84.3Z" fill="currentColor"/>
<path d="M64 11.5996C35 11.5996 11.6 34.9996 11.6 63.9996C11.6 92.9996 35.1 116.4 64 116.4C93 116.4 116.4 92.8996 116.4 63.9996C116.4 34.9996 93 11.5996 64 11.5996ZM107.9 63.9996C107.9 73.8996 104.6 83.0996 99 90.4996L37.5 28.9996C44.9 23.3996 54.1 20.0996 64 20.0996C88.2 20.0996 107.9 39.7996 107.9 63.9996ZM64 107.9C39.8 107.9 20.1 88.1996 20.1 63.9996C20.1 52.5996 24.5 42.1996 31.6 34.3996L93.6 96.3996C85.8 103.6 75.4 107.9 64 107.9Z" fill="currentColor"/>
</svg>
