<svg width="128" height="128" viewBox="0 0 128 128" fill="none" xmlns="http://www.w3.org/2000/svg">
<path d="M11.1 50.6002L19.7 59.2002C31 47.9002 46.7 40.8002 63.9 40.8002C81.1 40.8002 96.8 47.8002 108.1 59.1002L116.7 50.5002C103.3 37.1002 84.6 28.7002 64 28.7002C43.4 28.7002 24.7 37.1002 11.1 50.6002Z" fill="currentColor"/>
<path d="M28.4 67.9006L37 76.5006C43.9 69.6006 53.5 65.3006 64.1 65.3006C74.6 65.3006 84.2 69.6006 91.1 76.5006L99.7 67.9006C90.5 58.7006 77.9 53.1006 64 53.1006C50.1 53.1006 37.5 58.7006 28.4 67.9006Z" fill="currentColor"/>
<path d="M64 103.501L82.4 85.0007C76.7 79.3007 68.4 76.3006 59.8 77.7006C54.2 78.6006 49.3 81.3007 45.5 85.0007L64 103.501Z" fill="currentColor"/>
</svg>
