<svg width="128" height="128" viewBox="0 0 128 128" fill="none" xmlns="http://www.w3.org/2000/svg">
<path d="M85.575 110.087L91.2751 104.387C92.6751 102.987 92.6751 100.687 91.2751 99.2869L58.575 66.5869C57.175 65.1869 57.175 62.8869 58.575 61.4869L91.2751 28.6869C92.6751 27.2869 92.6751 24.9869 91.2751 23.5869L85.575 17.8869C84.175 16.4869 81.875 16.4869 80.475 17.8869L42.475 55.7869L36.775 61.4869C36.275 61.9869 35.975 62.5869 35.775 63.2869C35.775 63.5869 35.675 63.7869 35.675 64.0869C35.675 64.3869 35.675 64.5869 35.775 64.8869C35.875 65.4869 36.275 66.1869 36.775 66.6869L42.475 72.3869L80.375 110.287C81.875 111.487 84.075 111.487 85.575 110.087Z" fill="currentColor"/>
</svg>
