<svg width="128" height="128" viewBox="0 0 128 128" fill="none" xmlns="http://www.w3.org/2000/svg">
<path d="M108 24.5C108 17.9 102.6 12.5 96 12.5H32C25.4 12.5 20 17.9 20 24.5L13 103.5C13 110.1 18.4 115.5 25 115.5H103C109.6 115.5 115 110.1 115 103.5L108 24.5ZM95.7 47.9C95.7 65.4 81.5 79.6 64 79.6C46.5 79.6 32.3 65.4 32.3 47.9C32.3 45.3 32.6 42.9 33.2 40.5C31.7 39 30.7 36.9 30.7 34.5C30.7 29.9 34.4 26.2 39 26.2C43.6 26.2 47.3 29.9 47.3 34.5C47.3 38.6 44.3 42 40.4 42.7C40 44.4 39.8 46.1 39.8 47.9C39.8 61.2 50.6 72 63.9 72C77.2 72 88 61.2 88 47.9C88 46.1 87.8 44.4 87.4 42.7C83.5 42 80.5 38.6 80.5 34.5C80.5 29.9 84.2 26.2 88.8 26.2C93.4 26.2 97.1 29.9 97.1 34.5C97.1 36.8 96.1 38.9 94.6 40.5C95.4 42.9 95.7 45.3 95.7 47.9Z" fill="currentColor"/>
</svg>
