<svg width="128" height="128" viewBox="0 0 128 128" fill="none" xmlns="http://www.w3.org/2000/svg">
<path d="M100.7 31.0498C100.7 25.5498 96.2 21.0498 90.7 21.0498H37.3C31.8 21.0498 27.3 25.5498 27.3 31.0498L21.5 96.9498C21.5 102.45 26 106.95 31.5 106.95H96.5C102 106.95 106.5 102.45 106.5 96.9498L100.7 31.0498ZM90.4 50.5498C90.4 65.1498 78.6 76.9498 64 76.9498C49.4 76.9498 37.6 65.1498 37.6 50.5498C37.6 48.3498 37.9 46.3498 38.4 44.3498C37.1 43.0498 36.3 41.3498 36.3 39.3498C36.3 35.5498 39.4 32.4498 43.2 32.4498C47 32.4498 50.1 35.5498 50.1 39.3498C50.1 42.7498 47.6 45.6498 44.3 46.1498C44 47.5498 43.8 48.9498 43.8 50.4498C43.8 61.5498 52.8 70.5498 63.9 70.5498C75 70.5498 84 61.5498 84 50.4498C84 48.9498 83.8 47.5498 83.5 46.1498C80.2 45.5498 77.7 42.7498 77.7 39.3498C77.7 35.5498 80.8 32.4498 84.6 32.4498C88.4 32.4498 91.5 35.5498 91.5 39.3498C91.5 41.2498 90.7 43.0498 89.4 44.3498C90.2 46.4498 90.4 48.4498 90.4 50.5498Z" fill="currentColor"/>
</svg>
