<svg width="128" height="128" viewBox="0 0 128 128" fill="none" xmlns="http://www.w3.org/2000/svg">
<path d="M88 43.3994C83.7 52.2994 74.6 58.3994 64 58.3994C53.4 58.3994 44.3 52.2994 40 43.3994C28.8 53.0994 21.5 69.3994 21.5 87.8994C21.5 99.0994 24.1 109.399 28.7 117.899H99.3C103.9 109.299 106.5 98.8994 106.5 87.8994C106.5 69.4994 99.2 53.0994 88 43.3994Z" fill="currentColor"/>
<path d="M64 53.2996C75.9293 53.2996 85.6 43.629 85.6 31.6996C85.6 19.7703 75.9293 10.0996 64 10.0996C52.0706 10.0996 42.4 19.7703 42.4 31.6996C42.4 43.629 52.0706 53.2996 64 53.2996Z" fill="currentColor"/>
</svg>
