<svg width="128" height="128" viewBox="0 0 128 128" fill="none" xmlns="http://www.w3.org/2000/svg">
<path d="M86.8001 31.8996H84.3001V28.3996C84.3001 25.4996 81.9 23.0996 79 23.0996C76.1 23.0996 73.7 25.4996 73.7 28.3996V31.8996H54.7001V28.3996C54.7001 25.4996 52.3001 23.0996 49.4001 23.0996C46.5001 23.0996 44 25.4996 44 28.3996V31.8996H41.5C33.7 31.8996 27.3 38.2996 27.3 46.0996V88.5996C27.3 96.3996 33.7 102.8 41.5 102.8H86.9001C94.7001 102.8 101.1 96.3996 101.1 88.5996V46.0996C101 38.2996 94.6001 31.8996 86.8001 31.8996ZM89.7 88.5996C89.7 90.1996 88.4001 91.3996 86.9001 91.3996H41.5C39.9 91.3996 38.7001 90.0996 38.7001 88.5996V55.9996H89.7V88.5996Z" fill="currentColor"/>
<path d="M80.2 61H43.9V67H80.2V61Z" fill="currentColor"/>
<path d="M74.1 70.5H43.9V76.5H74.1V70.5Z" fill="currentColor"/>
<path d="M76.5 80.0996H43.9V86.0996H76.5V80.0996Z" fill="currentColor"/>
</svg>
