<svg width="128" height="128" viewBox="0 0 128 128" fill="none" xmlns="http://www.w3.org/2000/svg">
<path d="M72.8314 95.1496C72.5314 95.1496 72.2314 95.0496 72.0314 94.9496C71.6314 94.7496 71.4314 94.3496 71.4314 93.9496L70.9314 87.9496C70.8314 87.3496 71.2314 86.6496 71.8314 86.4496C75.9314 85.0496 79.5314 82.5496 82.3314 79.2496C90.8314 69.1496 89.5314 54.0496 79.3314 45.5496C76.5314 43.2496 73.2314 41.5496 69.8314 40.6496V42.4496C69.8314 43.5496 69.2314 44.3496 68.2314 44.7496C67.9314 44.8496 67.6314 44.8496 67.4314 44.8496C66.7314 44.8496 66.1314 44.5496 65.6314 44.0496L59.2314 37.3496C58.7314 36.9496 58.5314 36.2496 58.5314 35.6496C58.5314 34.9496 58.9314 34.3496 59.1314 34.1496L59.2314 34.0496L65.7314 27.5496L65.8314 27.4496C66.2314 27.0496 66.8314 26.8496 67.4314 26.8496C67.7314 26.8496 67.9314 26.8496 68.2314 26.9496C69.1314 27.2496 69.7314 28.0496 69.8314 29.0496V29.1496V31.6496C75.4314 32.6496 80.6314 35.0496 84.9314 38.7496C98.7314 50.3496 100.531 71.0496 88.9314 84.8496C84.8314 89.7496 79.3314 93.3496 73.1314 95.1496C73.1314 95.1496 73.0314 95.1496 72.8314 95.1496Z" fill="currentColor"/>
<path d="M60.6314 101.15C60.3314 101.15 60.1314 101.15 59.8314 101.05C58.9314 100.75 58.3314 99.9498 58.2314 98.9498V98.8498V96.0498C52.6314 95.0498 47.3314 92.6498 43.0314 88.9498C36.3314 83.3498 32.2314 75.5498 31.5314 66.8498C30.8314 58.0498 33.4314 49.6498 39.0314 42.9498C43.1314 38.0498 48.6314 34.4498 54.8314 32.6498C54.9314 32.6498 55.1314 32.5498 55.2314 32.5498C55.5314 32.5498 55.8314 32.6498 56.0314 32.7498C56.4314 32.9498 56.6314 33.3498 56.6314 33.7498L57.1314 39.6498C57.2314 40.2498 56.8314 40.9498 56.2314 41.1498C52.1314 42.5498 48.5314 45.0498 45.7314 48.3498C41.6314 53.2498 39.6314 59.4498 40.2314 65.8498C40.8314 72.2498 43.8314 78.0498 48.7314 82.1498C51.5314 84.5498 54.8314 86.1498 58.4314 87.0498V85.4498C58.4314 84.3498 59.0314 83.5498 60.0314 83.1498C60.3314 83.0498 60.5314 83.0498 60.8314 83.0498C61.5314 83.0498 62.1314 83.3498 62.6314 83.8498L69.0314 90.5498C69.5314 90.9498 69.7314 91.6498 69.7314 92.2498C69.7314 92.9498 69.3314 93.5498 69.1314 93.7498L69.0314 93.8498L62.5314 100.35L62.4314 100.45C61.8314 100.95 61.2314 101.15 60.6314 101.15Z" fill="currentColor"/>
</svg>
