<svg width="128" height="128" viewBox="0 0 128 128" fill="none" xmlns="http://www.w3.org/2000/svg">
<path fill-rule="evenodd" clip-rule="evenodd" d="M64.1 95.2996C81 95.2996 94.8 81.7996 95.3 64.9996C98.9 62.3996 101.7 58.8996 103.3 54.5996C104 57.5996 104.4 60.7996 104.4 63.9996C104.4 86.2996 86.3 104.4 64 104.4C41.7 104.4 23.6 86.2996 23.6 63.9996C23.6 41.6996 41.7 23.5996 64 23.5996C67.2 23.5996 70.3 23.9996 73.2 24.6996C69.1 26.3996 65.5 29.2996 63 32.8996C46.3 33.4996 32.9 47.1996 32.9 64.0996C32.9 81.2996 46.9 95.2996 64.1 95.2996ZM56.5 79.1998C56.5 82.7344 53.6346 85.5998 50.1 85.5998C46.5653 85.5998 43.7 82.7344 43.7 79.1998C43.7 75.6652 46.5653 72.7998 50.1 72.7998C53.6346 72.7998 56.5 75.6652 56.5 79.1998ZM58.8 46.1995C58.8 45.4995 58.8 44.7995 58.9 43.9995C54.9 42.6995 50.6 41.9995 46.2 41.9995V50.4995C51.2 50.4995 55.9 51.5995 60.1 53.5995C59.3 51.1995 58.8 48.7995 58.8 46.1995ZM61.6 46.1994C61.6 34.9994 70.7 25.8994 81.9 25.8994C93.1 25.8994 102.2 34.9994 102.2 46.1994C102.2 57.3994 93.1 66.4994 81.9 66.4994C70.7 66.4994 61.6 57.3994 61.6 46.1994ZM85.2 62.6994V59.2994C89.8 58.1994 92.4 55.1994 92.4 50.8994C92.4 45.3099 87.3191 43.7054 83.5213 42.5062L83.5 42.4994C82.2 42.0994 80 41.3994 80 40.8994C80 40.5994 80 39.7994 82.4 39.7994C84.2 39.7994 85.9 40.4994 87.6 41.7994C87.8 41.9994 88 42.0994 88.3 42.0994C88.6 42.0994 89 41.9994 89.2 41.6994L92.1 38.1994C92.5 37.6994 92.5 36.9994 92 36.5994C89.9 34.6994 87.7 33.5994 85.3 33.0994V29.7994C85.3 29.0994 84.7 28.5994 84.1 28.5994H80.3C79.6 28.5994 79.1 29.1994 79.1 29.7994V33.0994C74.7 33.9994 72 37.0994 72 41.2994C72 46.8889 77.0809 48.4934 80.8786 49.6927L80.9 49.6994C82.3 50.0994 84.5 50.7994 84.5 51.3994C84.5 51.7994 84.5 52.6994 81.4 52.6994C79.2 52.6994 77.3 51.9994 75.6 50.4994C75.4 50.2994 75.1 50.1994 74.8 50.1994H74.6C74.3 50.1994 74 50.3994 73.8 50.6994L71.3 54.5994C71 55.0994 71.1 55.6994 71.5 56.0994C73.5 58.0994 76.6 59.0994 79 59.4994V62.6994C79 63.3994 79.6 63.8994 80.2 63.8994H84C84.7 63.8994 85.2 63.2994 85.2 62.6994ZM87.4 83.1998V81.3998C87.2 77.0998 86.3 72.9998 84.9 69.0998C83.9 69.1998 82.9 69.2998 81.9 69.2998C79.6 69.2998 77.4 68.9998 75.3 68.2998C77.6 72.7998 78.9 77.7998 78.9 83.1998H87.4ZM46.2 56.1997C61.1 56.1997 73.2 68.2997 73.2999 83.1997H64.7999C64.7 72.9997 56.4 64.6997 46.2 64.6997V56.1997Z" fill="currentColor"/>
</svg>
