<svg width="128" height="128" viewBox="0 0 128 128" fill="none" xmlns="http://www.w3.org/2000/svg">
<path fill-rule="evenodd" clip-rule="evenodd" d="M64 110C88.9 110 109.2 90.1 109.9 65.3C115.2 61.6 119.4 56.3 121.9 50.2C122.9 54.6 123.5 59.2 123.5 64C123.5 96.8 96.8 123.5 64 123.5C31.2 123.5 4.5 96.9 4.5 64C4.5 31.1 31.1 4.5 64 4.5C68.6 4.5 73.2 5 77.5 6C71.4 8.5 66.1 12.8 62.4 18.1C37.7 18.9 18 39.2 18 64C18 89.4 38.6 110 64 110ZM52.8 86.2999C52.8 91.4914 48.5915 95.6999 43.4 95.6999C38.2085 95.6999 34 91.4914 34 86.2999C34 81.1084 38.2085 76.8999 43.4 76.8999C48.5915 76.8999 52.8 81.1084 52.8 86.2999ZM56.4768 34.6537L56.4768 34.6537L56.5 34.3999C50.6 32.4999 44.3 31.3999 37.7 31.3999V43.8999C45 43.8999 51.9 45.4999 58.1 48.4999C56.9 45.0999 56.3 41.3999 56.3 37.5999C56.3 36.5851 56.3851 35.6554 56.4768 34.6537ZM60.4 37.6002C60.4 21.1002 73.8 7.7002 90.3 7.7002C106.8 7.7002 120.2 21.1002 120.2 37.6002C120.2 54.1002 106.8 67.5002 90.3 67.5002C73.8 67.5002 60.4 54.1002 60.4 37.6002ZM95.2 62.0002V57.0002C101.8 55.4002 105.8 50.8002 105.9 44.6002C105.9 36.4002 98.3 34.0002 92.7 32.3002L92.4276 32.2144L92.4275 32.2143L92.4275 32.2143C90.5014 31.608 87.5 30.6631 87.5 29.9002C87.5 29.5002 87.5 28.2002 91.1 28.2002C93.6 28.2002 96.2 29.2002 98.7 31.2002C99 31.5002 99.4 31.6002 99.8 31.6002C100.3 31.6002 100.8 31.4002 101.1 31.0002L105.3 25.9002C105.9 25.2002 105.8 24.1002 105.1 23.5002C102.1 20.7002 98.9 19.0002 95.3 18.3002V13.5002C95.3 12.6002 94.5 11.8002 93.6 11.8002H88C87.1 11.8002 86.3 12.6002 86.3 13.5002V18.3002C79.8 19.6002 75.9 24.2002 75.9 30.4002C75.9 38.5151 83.343 40.9497 88.8281 42.7439L89 42.8002C91 43.4002 94.3 44.5002 94.3 45.3002C94.3 45.9002 94.3 47.2002 89.7 47.2002C86.5 47.2002 83.6 46.1002 81.1 44.0002C80.8 43.7002 80.4 43.6002 80 43.6002H79.8C79.3 43.7002 78.9 44.0002 78.6 44.4002L74.8 50.2002C74.3 50.8002 74.4 51.7002 75 52.3002C77.9 55.2002 82.4 56.7002 86.2 57.3002V62.0002C86.2 62.9002 87 63.7002 87.9 63.7002H93.5C94.4 63.7002 95.2 62.9002 95.2 62.0002ZM98.4 92.1002V89.4002C98.1 83.0002 96.8 77.0002 94.7 71.3002C93.2 71.5002 91.8 71.6002 90.3 71.6002C86.9 71.6002 83.7 71.1002 80.6 70.2002C84 76.8002 85.9 84.2002 86 92.1002H98.4ZM37.6 52.2998C59.6 52.2998 77.5 70.0998 77.6 92.0998H65C64.9 76.9998 52.7 64.7998 37.6 64.7998V52.2998Z" fill="currentColor"/>
</svg>
