<svg width="128" height="128" viewBox="0 0 128 128" fill="none" xmlns="http://www.w3.org/2000/svg">
<path d="M64 125.8C98.1311 125.8 125.8 98.1314 125.8 64.0002C125.8 29.869 98.1311 2.2002 64 2.2002C29.8688 2.2002 2.19995 29.869 2.19995 64.0002C2.19995 98.1314 29.8688 125.8 64 125.8Z" fill="#0064C8"/>
<path d="M99.9 69.1998H28.1C25.2 69.1998 22.9 66.7998 22.9 63.9998C22.9 61.0998 25.3 58.7998 28.1 58.7998H99.9C102.8 58.7998 105.1 61.1998 105.1 63.9998C105.1 66.8998 102.8 69.1998 99.9 69.1998Z" fill="white"/>
<path d="M74.9 38.2999H89.7V53.0999H100.2V33.0999C100.2 30.1999 97.8 27.8999 95 27.8999H75V38.2999H74.9Z" fill="white"/>
<path d="M38.3 53.0999V38.2999H53.1V27.8999H33.1C30.2 27.8999 27.9 30.2999 27.9 33.0999V53.0999H38.3Z" fill="white"/>
<path d="M53.1 89.6999H38.3V74.8999H27.9V94.8999C27.9 97.7999 30.3 100.1 33.1 100.1H53.1V89.6999Z" fill="white"/>
<path d="M89.7 74.8999V89.6999H74.9V100.2H94.9C97.8 100.2 100.1 97.7999 100.1 94.9999V74.9999H89.7V74.8999Z" fill="white"/>
</svg>
