<svg width="128" height="128" viewBox="0 0 128 128" fill="none" xmlns="http://www.w3.org/2000/svg">
<path d="M121.301 32.5191C121.301 35.2191 121.301 37.8191 121.301 40.5191C120.501 45.3191 119.901 50.2191 119.001 55.0191C113.901 81.2191 100.501 101.819 77.6012 115.819C68.3012 121.419 58.8012 121.619 49.4012 115.519C19.9012 96.4191 7.40124 68.5191 6.70124 34.4191C6.60124 29.8191 9.50124 27.2191 13.6012 25.6191C28.0012 20.1191 42.2012 14.0191 56.9012 9.01912C61.2012 7.51912 66.9012 7.61912 71.3012 9.11912C85.0012 13.7191 98.3012 19.5191 111.801 24.6191C116.001 26.2191 119.501 28.2191 121.301 32.5191ZM62.0012 63.5191C62.0012 75.2191 62.0012 86.8191 62.0012 98.5191C62.0012 104.519 63.9012 105.819 68.7012 102.119C75.2012 97.2191 81.7012 92.1191 87.1012 86.1191C97.7012 74.3191 103.201 59.9191 104.801 44.1191C105.101 40.6191 103.801 38.5191 100.501 37.3191C89.6012 33.2191 78.8012 28.8191 67.9012 24.7191C63.2012 22.9191 62.0012 23.8191 62.0012 29.0191C61.9012 40.5191 62.0012 52.0191 62.0012 63.5191Z" fill="currentColor"/>
</svg>
