<svg width="128" height="128" viewBox="0 0 128 128" fill="none" xmlns="http://www.w3.org/2000/svg">
<path d="M100.536 83.3004L82.8356 65.6004C87.6356 54.4004 85.7356 41.2004 76.9356 32.5004C68.5356 24.0004 55.9356 21.9004 45.0356 26.0004C45.1356 26.1004 45.2356 26.1004 45.2356 26.2004L54.2356 35.2004C58.9356 39.9004 58.9356 47.5004 54.2356 52.2004L52.2356 54.2004C47.5356 58.9004 39.9356 58.9004 35.2356 54.2004L26.2356 45.2004C26.1356 45.1004 26.1356 45.0004 26.0356 45.0004C21.8356 55.9004 23.9356 68.5004 32.4356 76.9004C41.2356 85.7004 54.3356 87.6004 65.5356 82.8004L83.2356 100.5C87.9356 105.2 95.5356 105.2 100.236 100.5L100.536 100.2C105.236 95.6004 105.236 87.9004 100.536 83.3004Z" fill="currentColor"/>
</svg>
