<svg width="128" height="128" viewBox="0 0 128 128" fill="none" xmlns="http://www.w3.org/2000/svg">
<path fill-rule="evenodd" clip-rule="evenodd" d="M79.6 28.1503H92.8C96.3 28.1503 99.2 30.9503 99.2 34.5503C99.2 38.0503 96.3 40.9503 92.8 40.9503H35.2001C31.7001 40.9503 28.8 38.0503 28.8 34.5503C28.8 31.0503 31.7001 28.1503 35.2001 28.1503H48.4001V23.3503C48.4001 21.8503 49.6 20.5503 51.2001 20.5503H76.8001C78.3001 20.5503 79.6 21.7503 79.6 23.3503V28.1503ZM58.3 30.9503H69.7C71 30.9503 72.1 29.8503 72.1 28.5503C72.1 27.2503 71 26.1503 69.7 26.1503H58.3C57 26.1503 55.9001 27.2503 55.9001 28.5503C55.9001 29.8503 57 30.9503 58.3 30.9503ZM37.5 44.3501H90.7C95.3 44.3501 99.2 48.1501 99.2 52.8501V98.9501C99.2 103.65 95.4 107.45 90.7 107.45H37.5C32.8 107.45 29 103.65 29 98.9501V52.8501C29 48.1501 32.8 44.3501 37.5 44.3501ZM44 99.2501C47.1 99.2501 49.7 96.6501 49.7 93.5501V59.0501C49.7 55.9501 47.1 53.3501 44 53.3501C40.9 53.3501 38.3 55.9501 38.3 59.0501V93.5501C38.3 96.6501 40.9 99.2501 44 99.2501ZM64 99.2501C67.1 99.2501 69.7 96.6501 69.7 93.5501V59.0501C69.7 55.9501 67.1 53.3501 64 53.3501C60.9 53.3501 58.3 55.9501 58.3 59.0501V93.5501C58.3 96.6501 60.9 99.2501 64 99.2501ZM84 99.2501C87.1 99.2501 89.7 96.6501 89.7 93.5501V59.0501C89.7 55.9501 87.1 53.3501 84 53.3501C80.9 53.3501 78.3 55.9501 78.3 59.0501V93.5501C78.3 96.6501 80.9 99.2501 84 99.2501Z" fill="currentColor"/>
</svg>
