<svg width="128" height="128" viewBox="0 0 128 128" fill="none" xmlns="http://www.w3.org/2000/svg">
<path fill-rule="evenodd" clip-rule="evenodd" d="M15.6 21H112.4C119 21 124.4 26.4 124.4 33V95C124.4 101.6 119 107 112.4 107H15.6C8.99998 107 3.59998 101.6 3.59998 95V33C3.59998 26.4 8.99998 21 15.6 21ZM112.4 98.5C114.3 98.5 115.9 96.9 115.9 95V33C115.9 31.1 114.3 29.5 112.4 29.5H15.6C13.7 29.5 12.1 31.1 12.1 33V95C12.1 96.9 13.7 98.5 15.6 98.5H112.4ZM43.2999 61.9001C49.2999 61.9001 54.5 58.4001 56.9 53.4001C63.2 58.9001 67.3 68.2001 67.4 78.6001C67.4 84.8001 65.8999 90.7001 63.2999 95.6001H23.2999C20.6999 90.8001 19.2 84.9001 19.2 78.6001C19.2 68.1001 23.4 58.9001 29.7 53.4001C32.1 58.4001 37.2999 61.9001 43.2999 61.9001ZM43.2 59.0001C49.9378 59.0001 55.4 53.538 55.4 46.8001C55.4 40.0622 49.9378 34.6001 43.2 34.6001C36.4621 34.6001 31 40.0622 31 46.8001C31 53.538 36.4621 59.0001 43.2 59.0001ZM73.6 60.2002H108.1V70.2002H73.6V60.2002ZM108.1 74.5H73.6V84.5H108.1V74.5ZM73.6 45.7998H108.1V55.7998H73.6V45.7998Z" fill="currentColor"/>
</svg>
