<svg width="128" height="128" viewBox="0 0 128 128" fill="none" xmlns="http://www.w3.org/2000/svg">
<path d="M63.6 81.6006H50.7V62.2006C50.7 61.0006 51.6 60.1006 52.8 60.1006H61.4C62.6 60.1006 63.5 61.0006 63.5 62.2006C63.6 62.2006 63.6 81.6006 63.6 81.6006Z" fill="#0064C8"/>
<path d="M49 81.6002H36.2V70.8002C36.2 69.6002 37.1 68.7002 38.3 68.7002H46.9C48.1 68.7002 49 69.6002 49 70.8002V81.6002Z" fill="#0064C8"/>
<path d="M78.3 81.6002H65.4V55.8002C65.4 54.6002 66.3 53.7002 67.5 53.7002H76.1C77.3 53.7002 78.2 54.6002 78.2 55.8002V81.6002H78.3Z" fill="#C8C8C8"/>
<path d="M92.8 81.6002H80V49.3002C80 48.1002 80.9 47.2002 82.1 47.2002H90.7C91.9 47.2002 92.8 48.1002 92.8 49.3002V81.6002Z" fill="#C8C8C8"/>
</svg>
