<svg width="128" height="128" viewBox="0 0 128 128" fill="none" xmlns="http://www.w3.org/2000/svg">
<path d="M63.5999 81.6006H50.7V62.2006C50.7 61.0006 51.5999 60.1006 52.7999 60.1006H61.4C62.6 60.1006 63.5 61.0006 63.5 62.2006C63.6 62.2006 63.5999 81.6006 63.5999 81.6006Z" fill="#C8C8C8"/>
<path d="M49 81.6002H36.2V70.8002C36.2 69.6002 37.0999 68.7002 38.2999 68.7002H46.9C48.1 68.7002 49 69.6002 49 70.8002V81.6002Z" fill="#C8C8C8"/>
<path d="M78.2999 81.6002H65.3999V55.8002C65.3999 54.6002 66.2999 53.7002 67.4999 53.7002H76.0999C77.2999 53.7002 78.1999 54.6002 78.1999 55.8002V81.6002H78.2999Z" fill="#C8C8C8"/>
<path d="M92.8 81.6002H80V49.3002C80 48.1002 80.9 47.2002 82.1 47.2002H90.7C91.9 47.2002 92.8 48.1002 92.8 49.3002V81.6002Z" fill="#C8C8C8"/>
</svg>
